<?xml version="1.0" encoding="UTF-8"?>
<svg id="_图层_2" data-name="图层 2" xmlns="http://www.w3.org/2000/svg" viewBox="0 0 694.85 694.55">
  <defs>
    <style>
      .cls-1 {
        fill: aqua;
      }
    </style>
  </defs>
  <g id="_图层_1-2" data-name="图层 1">
    <path class="cls-1" d="m459.93,402.74c0,14.82-2.87,28.82-8.61,41.99-5.74,13.17-13.67,24.55-23.78,34.16-10.12,9.61-21.87,17.28-35.26,23.05-13.4,5.76-27.76,8.63-43.05,8.63s-29.67-2.87-43.06-8.63c-13.4-5.77-25.01-13.44-34.85-23.05-9.84-9.61-17.63-20.99-23.37-34.16-5.74-13.17-8.61-27.17-8.61-41.99s2.87-28.81,8.61-41.98,13.53-24.69,23.37-34.57c9.84-9.88,21.45-17.69,34.85-23.46,13.39-5.76,27.74-8.65,43.06-8.65s29.65,2.89,43.05,8.65c13.39,5.77,25.14,13.58,35.26,23.46,10.11,9.88,18.04,21.4,23.78,34.57s8.61,27.17,8.61,41.98Z"/>
    <path class="cls-1" d="m694.85,347.12c0,28.49-3.43,56.19-9.9,82.69-6.95,28.45-17.4,55.54-30.88,80.76-58.47,109.48-173.86,183.98-306.65,183.98s-248.17-74.5-306.64-183.98c-13.48-25.22-23.93-52.31-30.88-80.76-6.47-26.5-9.9-54.2-9.9-82.69,0-51.67,11.28-100.7,31.51-144.77h115.19v-80.76h-63.55C143.87,50.49,232.79,4.19,332.59,0c-16.88,22.88-35.12,48.06-54.71,75.54-19.68,27.61-38.41,54.41-56.17,80.37-17.77,25.97-33.35,49.61-46.74,70.93-13.41,21.32-22.56,37.18-27.47,47.56-14.77,34.44-22.97,67.39-24.61,98.82-.96,18.35.23,37.22,3.55,56.59h79.69v80.76h-52.01c3.81,6.37,8.03,12.52,12.65,18.46,13.39,17.22,29.23,31.98,47.56,44.28,18.31,12.3,38.67,21.87,61.09,28.7,22.41,6.83,45.92,10.25,70.53,10.25,10.37,0,22.55-.69,36.49-2.05,13.94-1.37,28.7-4.38,44.28-9.02,15.58-4.64,31.16-11.07,46.74-19.27,15.58-8.2,30.2-19.13,43.87-32.8,6.56-6.56,13.12-14.35,19.69-23.37,3.38-4.66,6.58-9.72,9.6-15.18h-64.7v-80.76h89.02c.9-8.91,1.34-18.35,1.34-28.3-.55-31.7-5.74-60.68-15.58-86.93-9.84-26.24-23.78-48.65-41.83-67.24-18.04-18.58-39.77-32.8-65.19-42.64-25.42-9.84-53.71-13.94-84.87-12.3-7.67.55-14.5,1.78-20.51,3.69-6.02,1.92-11.21,3.97-15.58,6.15,10.93-15.3,22.68-31.7,35.27-49.2,12.57-17.49,25.13-35.13,37.72-52.9,12.57-17.76,25.14-35.26,37.72-52.48,7.38-10.11,14.48-19.8,21.3-29.06,59.2,20.4,111.15,56.36,150.97,102.99h-97.78v80.76h149.42c20.23,44.07,31.51,93.1,31.51,144.77Z"/>
  </g>
</svg>