<?xml version="1.0" encoding="UTF-8"?>
<svg id="_图层_2" data-name="图层 2" xmlns="http://www.w3.org/2000/svg" viewBox="0 0 941.2 892.28">
  <g id="_图层_1-2" data-name="图层 1">
    <g>
      <path d="m321.38,128.76c-13.08-13.34-25.82-26.47-38.71-39.45-11.14-11.21-22.63-22.07-33.62-33.42-14.87-15.35-15.03-33.68-.82-47.14,13.6-12.89,31.5-11.4,46.41,3.56,36.32,36.44,72.85,72.67,109,109.28,6.66,6.75,13.59,9.53,23.14,9.34,28.58-.58,57.22-1.1,85.75.19,14.79.67,24.57-5.12,34.26-14.97,34.65-35.25,69.8-70.01,104.72-104.98,8.05-8.06,17.33-12.89,28.97-10.43,12.37,2.61,21.15,9.41,25.08,22.09,3.98,12.83-.09,23.37-8.78,32.25-21.38,21.85-43.2,43.27-64.77,64.94-2.73,2.75-6.46,4.85-7.29,9.39,3.75,2.56,7.89,1.34,11.72,1.35,54.15.11,108.31.12,162.46.05,31.41-.04,58.52,11.23,81.82,31.66,35.92,31.5,53.81,72.08,58.95,119.01,1.4,12.76,1.4,25.49,1.41,38.25.02,117.01.38,234.02-.16,351.03-.23,50.35-16.43,95.42-52.6,131.36-23.28,23.13-51.67,37.11-85.43,37.85-11.09.25-22.17,1.18-33.25,1.04-7.17-.09-10,3.01-11.56,9.62-5.12,21.71-19.04,35.09-40.61,40.14-27.1,6.35-55.75-11.43-61.41-38.76-1.97-9.51-5.67-12.36-15.3-12.33-111.67.36-223.34.38-335.01.1-10.05-.03-14.81,2.45-17.2,12.98-5.08,22.39-25.35,38.16-48.04,39.45-21.88,1.25-42.7-12.41-51.28-33.64-8.09-20.03-8.07-19.71-30.11-18.14-28.17,2.01-55.02-2.92-79.35-17.92-33.1-20.4-54.94-49.83-67.76-86.23C2.96,710.6-.04,684.07,0,656.95c.18-116.67.04-233.35.1-350.02.02-35.57,7.21-69.48,24.84-100.68,21.33-37.76,51.74-64,95.02-73.57,6.29-1.39,12.59-1.89,19.02-1.89,56.84.02,113.69-.01,170.53-.13,3.55,0,7.33,1.08,11.87-1.91Zm149.19,615.35c102.26,0,204.52-.19,306.78.19,17.12.06,29.77-6.84,40.08-19.43,9.5-11.6,14.11-25.07,14.12-40.08.02-39.34.08-78.69.07-118.03,0-92.81-.45-185.62.15-278.42.21-32.91-23.58-63.19-62.39-62.49-86.09,1.56-172.22.5-258.33.51-115.04.02-230.09.13-345.13-.04-16.59-.02-30.41,5.32-40.97,17.98-11.24,13.47-15.44,29.38-15.42,46.83.14,117.69.08,235.38.1,353.08,0,15.13-.8,30.33.29,45.38,2.14,29.44,25.19,55.19,55.89,54.9,101.58-.98,203.17-.37,304.76-.37Z"/>
      <path d="m379.74,424.63c1.13,8.14-2.38,10.35-7.71,11.35-46.18,8.75-92.34,17.58-138.51,26.39-14.18,2.7-28.39,5.22-42.51,8.21-5.72,1.21-8.71.2-9.86-6.11-3.72-20.48-7.79-40.89-11.91-61.29-1.28-6.35.96-8.99,7.34-10.19,60.05-11.33,120.06-22.92,180.08-34.42,4.29-.82,9.28-2.38,10.6,3.91,4.45,21.36,8.61,42.77,12.48,62.16Z"/>
      <path d="m588.49,358.82c13.62,2.49,30.49,5.45,47.3,8.68,43.53,8.37,86.99,17.06,130.58,25.13,8.47,1.57,10.23,4.74,8.43,12.9-4.2,19-7.5,38.21-11.03,57.36-1.18,6.42-3.86,9.03-11.05,7.61-58.64-11.57-117.31-23-176.08-33.94-9.63-1.79-12.17-5.18-9.93-14.76,4.27-18.29,7.24-36.89,10.96-55.31.81-4.02.86-9.39,10.82-7.67Z"/>
      <path d="m523.46,646.22c-18.06,0-33.29-7.12-46.32-19.12-4.42-4.08-7.69-5.32-12.64-.64-37.13,35.02-81.08,19.29-109.41-12.98-.88-1.01-1.63-2.14-2.46-3.2-10.21-12.99-10.28-13.12,4.33-21.3,6.43-3.59,11.75-10.71,18.99-10.75,7.56-.04,8.84,10.06,14.7,13.92,3.07,2.02,5.73,4.67,8.74,6.81,14.5,10.31,25.83,9.49,38.58-3.03,10.39-10.21,17.91-22.57,25.42-34.91,1.86-3.06,2.7-7.95,6.76-8.01,4.58-.07,5.75,4.99,7.81,8.33,8.27,13.43,15.79,27.42,28.52,37.45,11.91,9.38,20.51,9.99,33.1,1.56,7.52-5.04,14.83-10.61,19.9-18.31,2.9-4.41,6.05-4.77,10.13-2.24,7.7,4.78,15.33,9.69,23.1,14.37,3.7,2.23,4.33,4.77,1.83,8.25-15.61,21.76-40.62,43.66-71.08,43.81Z"/>
    </g>
  </g>
</svg>