<?xml version="1.0" encoding="UTF-8"?>
<svg id="_图层_2" data-name="图层 2" xmlns="http://www.w3.org/2000/svg" viewBox="0 0 763.01 82.07">
  <defs>
    <style>
      .cls-1 {
        fill: #fff;
      }
    </style>
  </defs>
  <g id="_图层_1-2" data-name="图层 1">
    <g>
      <path class="cls-1" d="m76.67,61.12c-1.73,3.17-3.85,6.03-6.37,8.58-2.52,2.56-5.31,4.75-8.37,6.59-3.06,1.84-6.37,3.26-9.93,4.27s-7.25,1.51-11.07,1.51c-5.62,0-10.91-1.08-15.87-3.24-4.97-2.16-9.3-5.09-13.01-8.8-3.71-3.71-6.64-8.04-8.8-13.01-2.16-4.97-3.24-10.26-3.24-15.87s1.08-10.91,3.24-15.87c2.16-4.97,5.09-9.3,8.8-13.01,3.71-3.71,8.04-6.64,13.01-8.8C30.02,1.3,35.31.22,40.93.22c3.81,0,7.5.5,11.07,1.51,3.56,1.01,6.87,2.43,9.93,4.26,3.06,1.84,5.85,4.03,8.37,6.59,2.52,2.56,4.64,5.38,6.37,8.48l-14.15,5.72c-1.15-1.73-2.5-3.35-4.05-4.86-1.55-1.51-3.26-2.84-5.13-4-1.87-1.15-3.85-2.05-5.94-2.7-2.09-.65-4.25-.97-6.48-.97-3.6,0-6.96.74-10.1,2.21-3.13,1.48-5.85,3.44-8.15,5.88-2.3,2.45-4.14,5.31-5.51,8.58-1.37,3.28-2.05,6.68-2.05,10.2s.68,7.02,2.05,10.26c1.37,3.24,3.2,6.08,5.51,8.53,2.3,2.45,5.02,4.41,8.15,5.89,3.13,1.48,6.5,2.21,10.1,2.21,2.23,0,4.39-.32,6.48-.97,2.09-.65,4.07-1.55,5.94-2.7,1.87-1.15,3.58-2.5,5.13-4.05,1.55-1.55,2.9-3.19,4.05-4.91l14.15,5.72Z"/>
      <path class="cls-1" d="m125.26,82.07c-5.62,0-10.91-1.08-15.87-3.24-4.97-2.16-9.31-5.09-13.01-8.8-3.71-3.71-6.64-8.04-8.8-13.01-2.16-4.97-3.24-10.29-3.24-15.98s1.08-10.92,3.24-15.93c2.16-5,5.09-9.36,8.8-13.07s8.04-6.64,13.01-8.8c4.97-2.16,10.26-3.24,15.87-3.24s11.01,1.08,15.98,3.24c4.97,2.16,9.3,5.09,13.01,8.8,3.71,3.71,6.64,8.06,8.8,13.07,2.16,5,3.24,10.31,3.24,15.93s-1.08,11.01-3.24,15.98c-2.16,4.97-5.09,9.3-8.8,13.01-3.71,3.71-8.04,6.64-13.01,8.8-4.97,2.16-10.29,3.24-15.98,3.24Zm.05-67.92c-3.59,0-6.95.74-10.08,2.21-3.12,1.48-5.85,3.44-8.19,5.89-2.33,2.45-4.18,5.31-5.55,8.58-1.37,3.28-2.05,6.68-2.05,10.21s.68,7.02,2.05,10.26c1.37,3.24,3.21,6.1,5.55,8.58,2.34,2.48,5.07,4.46,8.19,5.94,3.12,1.48,6.48,2.21,10.08,2.21s6.95-.74,10.07-2.21c3.12-1.47,5.85-3.46,8.19-5.94,2.33-2.48,4.18-5.34,5.55-8.58,1.37-3.24,2.05-6.66,2.05-10.26s-.68-6.93-2.05-10.21c-1.37-3.27-3.21-6.14-5.55-8.58-2.34-2.45-5.07-4.41-8.19-5.89-3.12-1.47-6.48-2.21-10.07-2.21Z"/>
      <path class="cls-1" d="m213.59,81.96c-5.11,0-9.76-.79-13.93-2.38-4.18-1.58-7.74-3.82-10.69-6.7-2.95-2.88-5.24-6.37-6.86-10.47-1.62-4.1-2.43-8.67-2.43-13.71V1.62h15.12v47c0,3.95.65,7.22,1.94,9.81,1.3,2.59,2.9,4.64,4.8,6.15,1.91,1.51,3.96,2.55,6.16,3.13,2.2.58,4.16.86,5.89.86s3.69-.29,5.88-.86c2.2-.57,4.25-1.62,6.15-3.13,1.91-1.51,3.51-3.56,4.81-6.15,1.3-2.59,1.94-5.86,1.94-9.81V1.62h15.12v47.08c0,5.04-.79,9.61-2.38,13.71-1.58,4.1-3.85,7.6-6.8,10.47-2.95,2.88-6.52,5.11-10.69,6.7-4.18,1.58-8.85,2.38-14.04,2.38Z"/>
      <path class="cls-1" d="m331.83,80.56l-51.94-46.97v46.97h-15.12V1.62h1.62l51.94,47.73V1.62h15.12v78.94h-1.62Z"/>
      <path class="cls-1" d="m404.18,14.9h-22.57v65.65h-15.12V14.9h-22.68V1.51h60.36v13.39Z"/>
      <path class="cls-1" d="m445.71,80.56h-31.16V1.51h31.16c11.29,0,20.56,3.31,27.82,9.93,3.88,3.53,6.81,7.79,8.79,12.8,1.98,5,2.97,10.6,2.97,16.79s-.99,11.9-2.97,16.9c-1.98,5-4.91,9.27-8.79,12.8-3.52,3.24-7.64,5.69-12.35,7.34-4.71,1.66-9.87,2.48-15.47,2.48Zm-16.04-13.39h16.09c2.81,0,5.65-.32,8.53-.97,2.88-.65,5.49-1.93,7.83-3.83,2.34-1.91,4.26-4.55,5.78-7.94,1.51-3.38,2.27-7.81,2.27-13.28s-.76-9.92-2.27-13.34c-1.51-3.42-3.46-6.06-5.83-7.94-2.38-1.87-5-3.13-7.88-3.78-2.88-.65-5.69-.97-8.42-.97h-16.09v52.05Z"/>
      <path class="cls-1" d="m536.35,82.07c-5.62,0-10.91-1.08-15.87-3.24-4.97-2.16-9.3-5.09-13.01-8.8-3.71-3.71-6.64-8.04-8.8-13.01-2.16-4.97-3.24-10.29-3.24-15.98s1.08-10.92,3.24-15.93c2.16-5,5.09-9.36,8.8-13.07,3.71-3.71,8.04-6.64,13.01-8.8,4.97-2.16,10.26-3.24,15.87-3.24s11.01,1.08,15.98,3.24c4.97,2.16,9.3,5.09,13.01,8.8,3.71,3.71,6.64,8.06,8.8,13.07,2.16,5,3.24,10.31,3.24,15.93s-1.08,11.01-3.24,15.98c-2.16,4.97-5.09,9.3-8.8,13.01s-8.04,6.64-13.01,8.8c-4.97,2.16-10.3,3.24-15.98,3.24Zm.05-67.92c-3.59,0-6.95.74-10.08,2.21-3.12,1.48-5.85,3.44-8.19,5.89-2.34,2.45-4.18,5.31-5.55,8.58-1.36,3.28-2.05,6.68-2.05,10.21s.68,7.02,2.05,10.26c1.37,3.24,3.21,6.1,5.55,8.58,2.33,2.48,5.06,4.46,8.19,5.94,3.12,1.48,6.48,2.21,10.08,2.21s6.95-.74,10.07-2.21c3.12-1.47,5.86-3.46,8.19-5.94s4.18-5.34,5.55-8.58c1.37-3.24,2.05-6.66,2.05-10.26s-.68-6.93-2.05-10.21c-1.36-3.27-3.21-6.14-5.55-8.58-2.33-2.45-5.07-4.41-8.19-5.89-3.12-1.47-6.48-2.21-10.07-2.21Z"/>
      <path class="cls-1" d="m684.61,1.62l-29.48,78.94h-1.51l-21.38-46-21.6,46.11h-1.4L580.08,1.62h16.09l15.44,43.3,20.08-43.3h.97l20.08,43.41,15.77-43.41h16.09Z"/>
      <path class="cls-1" d="m761.39,80.56l-51.94-46.97v46.97h-15.12V1.62h1.62l51.94,47.73V1.62h15.12v78.94h-1.62Z"/>
    </g>
  </g>
</svg>