<?xml version="1.0" encoding="UTF-8"?>
<svg id="_图层_2" data-name="图层 2" xmlns="http://www.w3.org/2000/svg" viewBox="0 0 776.77 73.3">
  <defs>
    <style>
      .cls-1 {
        fill: #fff;
      }
    </style>
  </defs>
  <g id="_图层_1-2" data-name="图层 1">
    <g>
      <path class="cls-1" d="m13.5,71.95H0V1.45h13.5v70.5Z"/>
      <path class="cls-1" d="m28.07,62.69l7.33-10.8c3.54,2.44,7.18,4.55,10.95,6.32,3.76,1.77,7.7,2.65,11.81,2.65,2.18,0,4.11-.27,5.79-.82,1.67-.54,3.09-1.25,4.24-2.12,1.16-.87,2.03-1.86,2.6-2.99.58-1.12.87-2.23.87-3.33,0-1.41-.43-2.62-1.3-3.62-.87-1-2.03-1.82-3.47-2.46-1.45-.64-3.15-1.19-5.11-1.64-1.96-.45-4-.87-6.12-1.25-1.42-.26-3.05-.56-4.92-.92-1.87-.35-3.79-.83-5.79-1.45-1.99-.61-3.95-1.41-5.88-2.41-1.93-1-3.66-2.25-5.21-3.76-1.54-1.51-2.78-3.31-3.71-5.4-.93-2.09-1.4-4.55-1.4-7.38,0-4.11.83-7.54,2.51-10.27,1.67-2.73,3.81-4.88,6.41-6.46,2.6-1.58,5.5-2.68,8.68-3.33,3.18-.64,6.25-.96,9.21-.96s5.59.19,7.91.58c2.32.39,4.47.95,6.46,1.69,1.99.74,3.94,1.67,5.83,2.8s3.94,2.46,6.12,4l-7.52,10.61c-3.34-2.32-6.56-4.08-9.64-5.3-3.09-1.22-6.33-1.83-9.74-1.83-1.16,0-2.48.15-3.96.43-1.48.29-2.88.76-4.2,1.4-1.32.64-2.41,1.46-3.28,2.46-.87,1-1.3,2.2-1.3,3.62s.51,2.6,1.54,3.57c1.03.96,2.35,1.77,3.95,2.41,1.61.64,3.38,1.19,5.3,1.64,1.93.45,3.79.9,5.59,1.35,1.35.32,2.94.64,4.77.96,1.83.32,3.73.77,5.69,1.35,1.96.58,3.91,1.35,5.83,2.31,1.93.96,3.65,2.2,5.16,3.71,1.51,1.51,2.73,3.38,3.67,5.59.93,2.22,1.4,4.9,1.4,8.05,0,3.66-.64,6.85-1.93,9.55-1.29,2.7-3.12,4.93-5.5,6.7-2.38,1.77-5.21,3.1-8.49,4s-6.91,1.35-10.9,1.35c-3.67,0-6.9-.27-9.69-.82-2.8-.54-5.35-1.29-7.67-2.22-2.32-.93-4.5-2.04-6.56-3.33-2.06-1.29-4.18-2.7-6.37-4.24Z"/>
      <path class="cls-1" d="m109.95,13.31v17.65h34.14v12.25h-34.14v16.59h38.48v12.15h-51.98V1.35h51.98v11.96h-38.48Z"/>
      <path class="cls-1" d="m205.43,71.95l-29.61-32.12v32.12h-13.5V1.35h13.5v35.88L203.88,1.45h16.59l-29.03,36.46,31.83,34.04h-17.84Z"/>
      <path class="cls-1" d="m224.04,71.95L260.11,1.45h1.35l36.07,70.5h-14.66l-5.5-11.09h-33.27l-5.4,11.09h-14.66Zm26.62-22.86h20.16l-10.03-21.31-10.13,21.31Z"/>
      <path class="cls-1" d="m321.26,71.95h-13.5V1.45h13.5v70.5Z"/>
      <path class="cls-1" d="m382.21,1.45v44.27c0,4.12-.63,7.88-1.88,11.28-1.25,3.41-3.02,6.32-5.3,8.73-2.28,2.41-5.03,4.28-8.25,5.59-3.22,1.32-6.78,1.98-10.71,1.98-5.53,0-10.3-1.29-14.32-3.86-4.02-2.57-7.06-6.14-9.11-10.71l12.25-5.5c.39.9.9,1.82,1.54,2.75.64.93,1.41,1.77,2.32,2.51.9.74,1.94,1.35,3.13,1.83,1.19.48,2.59.72,4.2.72,2.76,0,4.97-.54,6.61-1.64,1.64-1.09,2.91-2.44,3.81-4.05.9-1.61,1.5-3.28,1.79-5.01.29-1.74.43-3.28.43-4.63V1.45h13.5Z"/>
      <path class="cls-1" d="m430.34,73.3c-5.01,0-9.74-.96-14.18-2.89-4.44-1.93-8.31-4.55-11.62-7.86-3.31-3.31-5.93-7.19-7.86-11.62-1.93-4.44-2.89-9.19-2.89-14.27s.96-9.76,2.89-14.23c1.93-4.47,4.55-8.36,7.86-11.67s7.19-5.93,11.62-7.86c4.44-1.93,9.16-2.89,14.18-2.89s9.84.96,14.27,2.89c4.44,1.93,8.31,4.55,11.62,7.86,3.31,3.31,5.93,7.2,7.86,11.67,1.93,4.47,2.89,9.21,2.89,14.23s-.96,9.84-2.89,14.27c-1.93,4.44-4.55,8.31-7.86,11.62s-7.19,5.93-11.62,7.86c-4.44,1.93-9.2,2.89-14.27,2.89Zm.05-60.66c-3.21,0-6.21.66-9,1.98-2.79,1.32-5.23,3.07-7.31,5.26-2.09,2.19-3.74,4.74-4.96,7.67-1.22,2.93-1.83,5.96-1.83,9.11s.61,6.27,1.83,9.16c1.22,2.89,2.87,5.45,4.96,7.67,2.08,2.22,4.52,3.99,7.31,5.3,2.79,1.32,5.79,1.98,9,1.98s6.21-.66,9-1.98c2.79-1.32,5.23-3.09,7.32-5.3,2.08-2.22,3.74-4.77,4.96-7.67s1.83-5.95,1.83-9.16-.61-6.19-1.83-9.11c-1.22-2.92-2.87-5.48-4.96-7.67-2.09-2.19-4.52-3.94-7.32-5.26-2.79-1.32-5.79-1.98-9-1.98Z"/>
      <path class="cls-1" d="m509.23,73.2c-4.57,0-8.71-.71-12.44-2.12-3.73-1.41-6.91-3.41-9.55-5.98-2.64-2.57-4.68-5.69-6.12-9.36-1.45-3.66-2.17-7.75-2.17-12.25V1.45h13.5v41.98c0,3.53.58,6.45,1.74,8.76,1.16,2.31,2.59,4.14,4.29,5.49,1.7,1.35,3.54,2.28,5.5,2.79,1.96.51,3.71.77,5.26.77s3.29-.26,5.26-.77c1.96-.51,3.79-1.44,5.5-2.79,1.7-1.35,3.13-3.18,4.29-5.49s1.74-5.23,1.74-8.76V1.45h13.5v42.05c0,4.5-.71,8.58-2.12,12.25-1.42,3.67-3.44,6.79-6.08,9.36-2.64,2.57-5.82,4.57-9.55,5.98-3.73,1.41-7.91,2.12-12.54,2.12Z"/>
      <path class="cls-1" d="m619.56,54.59c-1.54,2.83-3.44,5.39-5.69,7.67-2.25,2.28-4.74,4.24-7.47,5.88-2.73,1.64-5.69,2.91-8.87,3.81-3.18.9-6.48,1.35-9.88,1.35-5.02,0-9.74-.96-14.18-2.89s-8.31-4.55-11.62-7.86c-3.31-3.31-5.93-7.19-7.86-11.62-1.93-4.44-2.89-9.16-2.89-14.18s.96-9.74,2.89-14.18,4.55-8.31,7.86-11.62c3.31-3.31,7.18-5.93,11.62-7.86s9.16-2.89,14.18-2.89c3.41,0,6.7.45,9.88,1.35,3.18.9,6.14,2.17,8.87,3.81,2.73,1.64,5.22,3.6,7.47,5.88,2.25,2.28,4.15,4.81,5.69,7.57l-12.63,5.11c-1.03-1.54-2.24-2.99-3.62-4.34-1.38-1.35-2.91-2.54-4.58-3.57-1.67-1.03-3.44-1.83-5.3-2.41-1.87-.58-3.79-.87-5.79-.87-3.22,0-6.22.66-9.02,1.98-2.8,1.32-5.22,3.07-7.28,5.26-2.06,2.19-3.7,4.74-4.92,7.67-1.22,2.93-1.83,5.96-1.83,9.11s.61,6.27,1.83,9.16c1.22,2.89,2.86,5.43,4.92,7.62,2.06,2.19,4.49,3.94,7.28,5.26,2.8,1.32,5.8,1.98,9.02,1.98,1.99,0,3.92-.29,5.79-.87,1.86-.58,3.63-1.38,5.3-2.41,1.67-1.03,3.2-2.23,4.58-3.62s2.59-2.85,3.62-4.39l12.63,5.11Z"/>
      <path class="cls-1" d="m691.8,1.35v70.6h-13.5v-28.07h-34.82v28.07h-13.5V1.35h13.5v30.57h34.82V1.35h13.5Z"/>
      <path class="cls-1" d="m740.12,73.3c-5.01,0-9.74-.96-14.18-2.89s-8.31-4.55-11.62-7.86c-3.31-3.31-5.93-7.19-7.86-11.62-1.93-4.44-2.89-9.19-2.89-14.27s.96-9.76,2.89-14.23c1.93-4.47,4.55-8.36,7.86-11.67s7.19-5.93,11.62-7.86,9.16-2.89,14.18-2.89,9.84.96,14.27,2.89,8.31,4.55,11.62,7.86c3.31,3.31,5.93,7.2,7.86,11.67,1.93,4.47,2.89,9.21,2.89,14.23s-.96,9.84-2.89,14.27c-1.93,4.44-4.55,8.31-7.86,11.62-3.31,3.31-7.18,5.93-11.62,7.86s-9.2,2.89-14.27,2.89Zm.05-60.66c-3.21,0-6.21.66-9,1.98-2.79,1.32-5.23,3.07-7.31,5.26-2.09,2.19-3.74,4.74-4.96,7.67-1.22,2.93-1.83,5.96-1.83,9.11s.61,6.27,1.83,9.16c1.22,2.89,2.87,5.45,4.96,7.67,2.09,2.22,4.52,3.99,7.31,5.3,2.79,1.32,5.79,1.98,9,1.98s6.21-.66,9-1.98c2.79-1.32,5.23-3.09,7.31-5.3,2.09-2.22,3.74-4.77,4.96-7.67,1.22-2.89,1.83-5.95,1.83-9.16s-.61-6.19-1.83-9.11c-1.22-2.92-2.87-5.48-4.96-7.67-2.09-2.19-4.52-3.94-7.31-5.26-2.79-1.32-5.79-1.98-9-1.98Z"/>
    </g>
  </g>
</svg>