<?xml version="1.0" encoding="UTF-8"?>
<svg id="_图层_2" data-name="图层 2" xmlns="http://www.w3.org/2000/svg" viewBox="0 0 388.58 529.31">
  <defs>
    <style>
      .cls-1 {
        fill: #fff;
      }
    </style>
  </defs>
  <g id="_图层_1-2" data-name="图层 1">
    <path class="cls-1" d="m209.31,166.52c26.93-1.42,51.37,2.13,73.34,10.63s40.74,20.79,56.33,36.85c15.59,16.06,27.63,35.43,36.14,58.1s12.99,47.72,13.46,75.11c0,16.54-1.42,31.42-4.25,44.64-2.83,13.23-6.5,25.04-10.98,35.43-4.5,10.4-9.57,19.49-15.23,27.28-5.67,7.79-11.34,14.53-17.01,20.19-11.81,11.81-24.45,21.26-37.91,28.34-13.46,7.09-26.93,12.64-40.39,16.65s-26.22,6.61-38.26,7.79c-12.04,1.17-22.56,1.77-31.53,1.77-21.26,0-41.57-2.96-60.94-8.86-19.38-5.9-36.97-14.17-52.79-24.8-15.83-10.63-29.53-23.38-41.1-38.26-11.58-14.88-20.19-31.29-25.86-49.25C2.87,378.38-1.14,349.93.28,322.76c1.42-27.16,8.5-55.62,21.26-85.38,4.25-8.97,12.16-22.67,23.74-41.1,11.57-18.42,25.03-38.85,40.39-61.29,15.35-22.43,31.53-45.58,48.54-69.44,17.01-23.85,32.83-45.7,47.47-65.54h122.58c-9.46,12.75-19.61,26.57-30.47,41.45-10.87,14.88-21.73,30-32.59,45.35-10.87,15.36-21.73,30.59-32.59,45.7-10.87,15.12-21.03,29.3-30.47,42.51,3.78-1.88,8.26-3.65,13.46-5.31,5.19-1.65,11.09-2.71,17.71-3.19Zm-13.46,274.93c13.22,0,25.62-2.48,37.2-7.46,11.57-4.98,21.72-11.61,30.47-19.92,8.74-8.3,15.59-18.13,20.55-29.52s7.44-23.47,7.44-36.28-2.48-24.89-7.44-36.27c-4.96-11.38-11.81-21.33-20.55-29.87-8.75-8.54-18.9-15.29-30.47-20.27-11.58-4.98-23.98-7.47-37.2-7.47s-25.63,2.49-37.2,7.47c-11.58,4.98-21.61,11.74-30.12,20.27-8.5,8.54-15.23,18.49-20.19,29.87-4.96,11.38-7.44,23.47-7.44,36.27s2.48,24.9,7.44,36.28,11.69,21.21,20.19,29.52,18.53,14.94,30.12,19.92c11.57,4.98,23.97,7.46,37.2,7.46Z"/>
  </g>
</svg>