<?xml version="1.0" encoding="UTF-8"?>
<svg id="_图层_2" data-name="图层 2" xmlns="http://www.w3.org/2000/svg" viewBox="0 0 554.72 905.82">
  <g id="_图层_1-2" data-name="图层 1">
    <path d="m546.12,891.13c-6.86,9.19-15.64,14.6-27.65,14.58-79.52-.14-159.06.59-238.57-.49-33.33-.45-61.18-16.74-85.64-38.51-11.7-10.41-22.01-22.2-29.75-35.98-4.31-7.72-2.78-11.23,6.06-12.19,13.03-1.39,24.14,2.94,32.94,12.68,14.83,16.4,32.14,29.08,52.97,36.94,12.6,4.78,25.67,6.68,38.96,6.7,70.7.16,141.37.1,212.07.08,14.38,0,17.81-3.78,14.8-18.03-8.52-40.49-34.94-65.65-71.59-81.38-17.7-7.58-36.49-10.68-55.71-10.7-69.67-.12-139.35.29-209.02-.33-31.39-.27-62.3-4.72-91.59-17.21-44.8-19.11-73.62-52.17-86.64-99.06-5.78-20.81-7.55-42.19-7.6-63.57C-.07,404.86.01,225.08.03,45.27.03,12.77,12.81-.2,45.02,0c46.6.29,79.33,24.5,103.55,61.98,17.42,27,24.4,57.26,24.42,89.22.02,157.71.02,315.42.04,473.12.02,9.84.18,19.71.25,29.55.06,10.01-5.78,13.64-14.42,8.64-7.39-4.31-11.5-11.33-14.17-19.28-2.55-7.56-2.35-15.4-2.35-23.22-.04-156.34.22-312.68-.35-469.02-.1-30.79-8.64-59.79-28.67-84.34-15.93-19.5-36.35-31.43-61.2-35.47-16.5-2.7-20.07.51-20.07,17.01v273.27h.06c0,90.4-.23,180.8.14,271.2.08,22.16,3.68,43.86,12.05,64.73,12.8,31.9,36.64,51.58,67.96,63.22,22.85,8.49,46.6,12.05,70.98,12.03,68.98-.06,137.98-.24,206.98.16,31.96.18,62.98,5.72,91.07,22.14,36.82,21.48,63.16,51.34,71.82,94.16,2.92,14.5,2.51,29.26-7,42.03Z"/>
  </g>
</svg>