<?xml version="1.0" encoding="UTF-8"?>
<svg id="_图层_2" data-name="图层 2" xmlns="http://www.w3.org/2000/svg" viewBox="0 0 1391.87 497.43">
  <g id="_图层_1-2" data-name="图层 1">
    <g>
      <path d="m1050.31,394.28c0-24.28-1.09-48.63.34-72.83,1.19-20.08-7.03-26.36-25.91-24.96-15.43,1.15-31.01-.09-46.52.22-14.18.29-21.21-5.43-20.78-20.37.56-19.54.62-39.13-.04-58.67-.52-15.38,5.64-22.39,21.3-21.96,18.2.5,36.42-.21,54.63.03,11.85.16,17.65-4.91,16.93-16.97-.16-2.69.02-5.39.05-8.09.38-40.25.4-40.65-39.22-42.78-12.77-.69-18.29-5.5-18.03-18.34.42-20.23.62-40.49-.1-60.7-.54-15.16,6.35-20.75,20.66-19.86,6.72.42,13.49-.11,20.23-.01,9.06.14,16.35-1.9,16.39-12.94.04-12.54,7.36-15.88,18.45-15.73,20.91.28,41.82.21,62.73.06,9.38-.07,16.13,3.02,16.47,13.36.47,14.33,9.79,15.08,20.85,15.4,80.19,2.37,121.08,44.43,121.21,124.24.01,6.74.53,13.54-.08,20.22-1.37,14.82,4.72,21.23,19.72,24.26,54.61,11,81.78,45.27,82,101.21.15,38.45.71,76.91-.26,115.33-1.06,42.24-29.25,74.51-68.69,80.84-55.65,8.94-97.06-10.1-113.08-51.98-9.24-24.16-5.34-29.9,20.5-30.13.67,0,1.35,0,2.02,0q60.83-.3,60.82-62.22,0-54.21-54.34-54.21c-21.58,0-43.22.93-64.74-.27-19.08-1.06-26.37,5.59-25.95,25.31,1.06,49.22.43,98.47.3,147.71-.06,25.47-1.2,26.53-25.86,26.68-16.86.1-33.75-.6-50.58.17-15.5.71-22.04-5.2-21.59-21.12.76-26.96.21-53.95.17-80.93Zm98.23-234.17c0,7.38-.17,14.76.04,22.13.35,12.08,8.8,13.64,18.23,13.42,9.23-.22,20.52,1.58,21.47-11.98.98-14,.52-28.15,0-42.2-.32-8.75-6.03-12.43-14.55-13.55-22.17-2.94-25.5,1.05-25.19,32.19Z"/>
      <path d="m801.62,496.2c-45.21,0-90.43.08-135.64-.03-25.25-.06-26.22-1.47-15.31-24.97,8.52-18.35,18.21-36.17,26.6-54.58,5.19-11.4,13.05-15.91,25.43-15.44,17.52.66,35.1-.37,52.62.28,13.44.5,19.59-3.85,19.51-18.37-.44-77.6-.49-155.21.03-232.81.1-15.75-7.02-19.49-20.97-19.26-44.58.71-39.75,1.87-39.87-40.9q-.18-60.84,60.51-60.84c43.19,0,86.38-.08,129.56.04,26.07.07,26.77.89,26.86,27.69.07,18.22-.48,36.46.12,54.65.46,13.84-5.48,18.93-19.08,19.61-39.06,1.96-39.04,2.37-39.04,41.59,0,68.16.5,136.32-.32,204.46-.22,18.44,5.59,25.78,24.37,24.26,16.09-1.3,32.37.03,48.56-.24,11.98-.2,17.17,5.36,17.04,17.15-.21,18.89-.61,37.81.2,56.67.68,15.87-5.97,21.41-21.52,21.21-46.55-.6-93.12-.22-139.68-.19Z"/>
      <path d="m277.81,219.87c0,62.67-.08,125.34.07,188.01.03,12.22-.97,24.24-4.25,36-10.75,38.56-32.12,52.59-79.47,52.32-38.46-.22-64.48-19.09-73.76-53.5-6.48-24.02-3.05-28.52,21.99-28.79,4.72-.05,9.46-.38,14.15.02,14.76,1.24,20.67-5.35,20.33-20.08-.59-25.59-.13-51.21-.12-76.82,0-95.69-.05-191.38.04-287.06.03-28.68,1.03-29.52,29.47-29.61,16.17-.05,32.4.87,48.5-.23,17.96-1.23,23.46,6.47,23.3,23.65-.63,65.36-.25,130.73-.24,196.09Z"/>
      <path d="m581.98,371.18c-13.5,0-27,.28-40.49-.06-27.27-.69-38.05-14.89-29.87-41.22,8.43-27.14,22.66-51.87,35.16-77.28q17.59-35.74-21.15-35.74c-48.52-.04-59.52-17.05-38.47-60.86,22.21-46.22,45.45-91.94,67.55-138.2,6.02-12.6,13.95-18.4,28.18-17.69,18.85.94,37.79.63,56.67.11,14.98-.41,18.02,4.75,10.95,17.91-16.59,30.91-32.66,62.1-48.84,93.23-2.47,4.76-5.33,9.64-6.31,14.79-1.33,7.01,1.75,10.66,9.23,6.8,28.15-14.51,58.14-5,87.22-6.05,13.19-.47,6.94,9.87,3.83,16.06-19.69,39.19-39.65,78.24-59.43,117.39-14.95,29.59-13.83,31.43,18.38,31.6,5.4.03,10.8.05,16.19.28,9.4.39,12.17,5.33,7.88,13.36-10.5,19.62-21.26,39.11-32.27,58.45-4.36,7.65-12.43,7.08-19.87,7.11-14.85.06-29.69.02-44.54,0Z"/>
      <path d="m384.89,126.04c47.88,0,46.95.03,48.43,46.1,1.73,53.88,5.53,107.71,19.77,160.05,3.45,12.69,1.99,23.23-4.6,34.52-12.9,22.11-24.8,44.8-36.77,67.43-6.23,11.78-13.03,11.71-21.82,2.74-12.65-12.91-19.6-28.88-25.24-45.56-17-50.24-22-102.61-26.53-154.96-2.5-28.82-2.5-57.85-4.44-86.74-1.16-17.18,4.82-25.44,22.91-23.73,9.35.88,18.85.16,28.29.14Z"/>
      <path d="m120.89,184.37c-4.06,66.36-7.26,137.1-29.27,205.24-5.21,16.14-11.89,31.57-22.91,44.71-9.3,11.1-17.51,13.95-25.68-1.87-12.36-23.95-25.73-47.38-38.86-70.92-4.16-7.46-5.26-14.81-3.07-23.24,16-61.72,22.99-124.55,20.35-188.22-.78-18.88,6.03-25.46,24.34-24.26,16.78,1.1,33.77,1.26,50.52-.03,20.03-1.54,26.71,7.11,24.74,25.98-.97,9.34-.17,18.86-.17,32.6Z"/>
      <path d="m528.25,496.09c-17.48,0-35.01.8-52.44-.2-21.69-1.25-26.28-9.46-16.9-28.26,10.21-20.45,20.72-40.76,31.27-61.04,3.07-5.9,5.9-12.42,14.66-11.29,39.52,5.11,79.23,1.39,118.84,2.23,14.93.32,20.21,4.36,12.16,19.05-10.98,20.05-21.57,40.33-31.53,60.9-6.63,13.7-15.94,20.3-31.7,19.06-14.7-1.15-29.57-.25-44.36-.25,0-.07,0-.14,0-.21Z"/>
      <path d="m1293.7,95.55c-.97-21.32.99-38.54,15.21-51.71,14.62-13.55,31.37-18.26,50.26-10.3,19.27,8.12,29.83,22.96,29.94,43.98.1,20.87-9.53,36.28-29.15,44.33-17.42,7.14-36.04,6.74-53.88,3.8-20.81-3.42-8.63-22.07-12.37-30.1Z"/>
    </g>
  </g>
</svg>