<?xml version="1.0" encoding="UTF-8"?>
<svg id="_图层_2" data-name="图层 2" xmlns="http://www.w3.org/2000/svg" viewBox="0 0 916.86 916.86">
  <defs>
    <style>
      .cls-1 {
        fill-rule: evenodd;
      }
    </style>
  </defs>
  <g id="_图层_1-2" data-name="图层 1">
    <g>
      <path class="cls-1" d="m782.94,134.62l-.71-.7C699.41,51.27,585.14.14,458.93,0h-1v144.83c-20.6.03-40.73,2.05-60.21,5.87-.33.07-.65.13-.98.2-20.05,4-39.42,9.91-57.89,17.54-.31.12-.62.25-.93.38-18.77,7.82-36.61,17.41-53.32,28.56-.28.18-.55.36-.83.56-16.8,11.28-32.46,24.15-46.74,38.39-.23.23-.47.47-.7.7-14.24,14.28-27.11,29.94-38.4,46.74-.19.28-.37.55-.55.83-11.15,16.71-20.74,34.55-28.56,53.32-.13.31-.26.62-.38.93-7.63,18.47-13.54,37.84-17.54,57.89-.07.33-.13.65-.2.98-3.82,19.48-5.84,39.61-5.87,60.21v1c.03,20.59,2.05,40.72,5.87,60.2.06.33.13.65.2.98,3.99,20.05,9.9,39.42,17.54,57.89.12.31.25.62.38.93,7.81,18.77,17.4,36.61,28.56,53.32.17.28.36.55.55.83,11.28,16.8,24.15,32.46,38.4,46.74.23.23.46.47.7.71,14.28,14.24,29.94,27.11,46.74,38.39.28.2.55.38.83.56,16.71,11.15,34.55,20.74,53.32,28.56.31.13.62.26.93.38,18.47,7.63,37.84,13.54,57.89,17.54.33.07.65.13.98.2,19.48,3.82,39.61,5.84,60.21,5.87v108.21c-27.56-.03-54.73-2.68-81.32-7.91-.33-.06-.66-.13-.99-.2-26.71-5.3-52.83-13.22-78.19-23.71-.31-.12-.62-.25-.93-.39-.75-.31-1.51-.62-2.26-.94-24.54-10.37-47.84-22.94-69.79-37.6-.28-.18-.56-.36-.83-.55-22.5-15.1-43.55-32.39-63-51.79l-.11-.1-.7-.71-.1-.09c-19.4-19.46-36.7-40.52-51.8-63.02-.19-.27-.38-.55-.55-.83-14.66-21.94-27.23-45.26-37.6-69.78-.32-.75-.64-1.51-.94-2.27-.14-.3-.27-.61-.39-.92-10.49-25.36-18.4-51.49-23.71-78.2-.07-.32-.14-.65-.2-.98-5.23-26.58-7.88-53.75-7.91-81.32v-1H0v1c.14,126.21,51.27,240.48,133.92,323.3l.7.71c82.82,82.64,197.1,133.78,323.31,133.92h1c118.3-.13,226.11-45.06,307.36-118.76,5.43-4.92,10.75-9.98,15.94-15.16l.71-.71c5.18-5.19,10.24-10.51,15.16-15.94,5.04-5.56,9.95-11.24,14.7-17.04,64.94-79.01,103.94-180.11,104.06-290.32v-1c-.14-126.21-51.28-240.49-133.92-323.31Zm98.3,240.21l26.03-5.18c5.69,28.87,8.56,58.35,8.59,88.28h-34.62v-83.1Zm0-1.02v-89.97l.09-.04c11.39,27.53,19.99,55.88,25.75,84.87l-25.84,5.14Zm-.3-90.94l-.08.04h0l-63.63-63.63,21.88-14.62c15.9,23.81,29.54,49.1,40.8,75.72.35.83.7,1.66,1.03,2.49Zm-42.38-79.04l-22.05,14.73-58.75-58.75,24.47-24.48c21.1,21.14,39.91,44.03,56.33,68.5Zm-81.51-44.73l-58.76-58.76,14.73-22.04c24.47,16.41,47.36,35.22,68.5,56.33l-24.47,24.47Zm-44.86-81.36l-14.62,21.88-63.62-63.62.03-.09c.84.34,1.67.69,2.5,1.04,26.62,11.26,51.91,24.89,75.71,40.79Zm-79.17-42.13h-89.98l5.14-25.83c29,5.76,57.35,14.35,84.88,25.75l-.04.08ZM458.93,1c29.92.03,59.41,2.9,88.27,8.59l-5.18,26.02h-83.09V1Zm0,35.61h174.22l.38.38h0s63.48,63.48,63.48,63.48h0s.43.43.43.43l38.65,38.65,20.25,20.26.35.35c.12.12.24.24.35.36h.01s20.2,20.2,20.2,20.2l102.6,102.6h0s.39.39.39.39v349.44l-63.86,63.86h0l-6.09-4.07-.8-.54-90.01-60.14c11.16-16.71,20.75-34.56,28.56-53.33.13-.3.26-.61.38-.92,7.63-18.48,13.55-37.84,17.54-57.9.07-.33.14-.65.2-.98,3.82-19.48,5.84-39.61,5.87-60.2v-1c-.03-20.6-2.05-40.73-5.87-60.21-.07-.33-.13-.65-.2-.98-4-20.05-9.91-39.42-17.54-57.89-.12-.31-.25-.62-.38-.93-7.82-18.77-17.41-36.62-28.56-53.33-.18-.27-.37-.55-.56-.82-11.28-16.8-24.15-32.46-38.39-46.74-.24-.24-.48-.47-.71-.7-14.28-14.24-29.93-27.11-46.74-38.39-.27-.2-.55-.38-.83-.56-16.71-11.16-34.55-20.74-53.32-28.56-.31-.13-.62-.26-.93-.38-18.47-7.63-37.84-13.55-57.89-17.54-.33-.07-.65-.13-.98-.2-19.48-3.82-39.61-5.84-60.2-5.87V36.61Zm285.93,733.33v29.37h-255v-95.77h255v66.4Zm-144.28,30.37h85.68l6.14,9.19c-21.94,14.65-45.25,27.22-69.78,37.59-.76.32-1.51.64-2.27.95l-19.77-47.73Zm18.85,48.11c-25.37,10.49-51.49,18.41-78.2,23.71l-14.29-71.82h72.56l19.93,48.11Zm68.03-48.11h18.14c-4.07,2.96-8.19,5.84-12.37,8.63l-5.77-8.63ZM458.93,145.83c20.34.03,40.39,1.98,60,5.84l-8.67,43.62c-16.61-3.26-33.77-4.98-51.33-5.01v-44.45Zm220.89,91.91c14.34,14.38,27.13,29.94,38.29,46.57l-36.98,24.71c-9.63-14.32-20.61-27.66-32.75-39.84h0s31.44-31.44,31.44-31.44h0Zm-190.96,486.13c-9.88,1.11-19.86,1.68-29.93,1.7v-50.63c14.1-.06,27.89-1.47,41.23-4.11l6.31,31.71h-17.61v21.33Zm-69.3-72.65c-12.29-2.43-24.3-6.03-35.97-10.8,0,0,0,0,0,0l2.86-6.91c11.03,4.54,22.58,8.07,34.55,10.46,0,0,0,0,0,0l-1.44,7.25s0,0,0,0Zm-36.9-11.19c-.41-.17-.82-.34-1.22-.51-11.22-4.75-21.89-10.48-31.95-17.15l4.2-6.29c9.98,6.65,20.63,12.37,31.83,17.04,0,0,0,0,0,0l-2.86,6.91s0,0,0,0Zm-63.69-42.64s-.07-.07-.1-.11c-8.96-8.96-16.96-18.65-23.95-29.01-.18-.27-.37-.54-.55-.82-6.83-10.22-12.69-21.09-17.53-32.53-.09-.21-.18-.42-.26-.63-.13-.3-.26-.61-.38-.92-4.83-11.68-8.48-23.71-10.96-36-.06-.33-.13-.66-.19-.99-2.39-12.25-3.61-24.76-3.64-37.45v-1c.03-12.7,1.25-25.21,3.64-37.46l7.63,1.52c-2.27,11.63-3.48,23.64-3.51,35.94v1c.03,12.3,1.24,24.3,3.51,35.93.01.05.02.1.03.15.04.23.08.46.14.69.01.05.02.1.03.15,2.39,11.97,5.92,23.52,10.46,34.56.02.05.04.09.06.14.08.22.18.43.27.65.02.04.04.09.06.13,4.67,11.2,10.4,21.85,17.04,31.84.03.04.05.08.08.12.14.2.26.39.39.58.03.04.05.08.08.12,6.76,10.02,14.44,19.36,22.94,27.9.03.04.06.07.1.11.16.17.33.34.5.49.04.04.07.07.11.1,8.53,8.5,17.87,16.19,27.89,22.94l-4.2,6.28c-10.38-6.94-20.1-14.9-29.09-23.82-.2-.2-.4-.4-.6-.6Zm-42.78-213.9h0s7.15,2.96,7.15,2.96c0,0,0,0,0,0-4.54,11.03-8.07,22.58-10.46,34.55l-7.63-1.51h0c2.47-12.3,6.12-24.32,10.94-36Zm69.35-103.51c0,2.58-.32,4.97-.96,7.17-.11.41-.25.82-.39,1.22-.16.45-.33.89-.52,1.32-1.37,3-3.18,5.55-5.42,7.67-2.37,2.12-5.04,3.86-8.04,5.23-3.36,1.37-6.66,2.06-9.9,2.06s-6.61-.69-9.72-2.06c-.71-.27-1.39-.57-2.05-.9-2.34-1.13-4.33-2.58-5.99-4.33-2.12-1.87-3.86-4.42-5.23-7.67-1.37-3.11-2.06-6.35-2.06-9.71s.69-6.42,2.06-9.54c1.37-3.11,3.11-5.73,5.23-7.85,2.37-2.36,5.05-4.17,8.04-5.42,2.86-1.24,6.1-1.86,9.72-1.86.62,0,1.24.02,1.84.06.43.02.85.06,1.27.11,2.42.25,4.68.82,6.79,1.69,2.74,1.25,5.43,3.06,8.04,5.42,2.37,2.37,4.17,4.99,5.42,7.85.47,1.07.84,2.18,1.13,3.34.5,1.94.74,4.01.74,6.2Zm-59.39,36.33c1.12.91,2.29,1.75,3.51,2.54.59.4,1.18.78,1.78,1.15,3.74,2.31,7.75,4.11,12.05,5.39,2.56.85,5.25,1.48,8.08,1.88,2.55.37,5.21.55,7.99.55.62,0,1.27-.01,1.95-.04.33-.01.67-.03,1.02-.05,1.29-.06,2.68-.18,4.17-.33.41-.04.83-.09,1.26-.14h0c2.99-.12,6.36-.81,10.1-2.05,3.36-.87,6.91-2.31,10.65-4.3,3.36-1.75,6.66-4.24,9.9-7.48.44-.44.89-.92,1.35-1.45.23-.25.45-.52.68-.79.79-.94,1.61-2,2.46-3.18,1.5-1.99,2.86-4.36,4.11-7.1,1.08-2.89,2-5.89,2.73-9.03.03-.1.06-.21.08-.32.04-.19.08-.39.12-.58.54-2.71.86-5.68.96-8.91.03-.75.04-1.51.04-2.28-.23-6.78-1.26-12.91-3.07-18.42-.15-.47-.31-.93-.48-1.39-2.25-5.86-5.42-10.97-9.54-15.33-.76-.79-1.55-1.53-2.37-2.25h42.07v86.58c-6.38,2.99-12.51,6.45-18.33,10.32-.28.18-.56.37-.83.56-7.5,5.05-14.5,10.8-20.89,17.15-.23.24-.46.47-.7.7-6.35,6.39-12.1,13.39-17.15,20.89-.19.27-.38.55-.56.83-.31.46-.62.93-.92,1.4h-52.23v-29.41h69.3v-16.17h-69.3v-18.94Zm280.91,305.6c-10.26,6.87-21.16,12.75-32.64,17.61-.13.05-.25.11-.38.16-.3.13-.61.26-.92.38-11.63,4.83-23.62,8.49-35.87,10.97-.32.07-.65.14-.99.19-12.2,2.42-24.67,3.67-37.33,3.72v-53.58c9.19-.03,18.18-.93,26.89-2.62.33-.07.66-.13.99-.2,8.95-1.8,17.6-4.44,25.87-7.83.31-.13.62-.26.92-.39,8.38-3.51,16.36-7.79,23.83-12.76.28-.18.56-.37.83-.55,7.5-5.06,14.49-10.81,20.88-17.16.24-.23.48-.47.71-.71,6.35-6.39,12.1-13.38,17.16-20.88l37.95,25.35h0s.56.38.56.38l5.73,3.83c-6.94,10.33-14.87,20.01-23.76,28.96-.2.21-.4.41-.6.61-.04.04-.07.07-.11.1-8.93,8.93-18.58,16.9-28.89,23.86-.27.2-.55.38-.83.56Zm-181.27,10.56c-.25-.1-.51-.2-.76-.31-10.88-4.6-21.22-10.16-30.96-16.65l25.36-37.95c7.47,4.97,15.44,9.25,23.82,12.76l-17.46,42.15s0,0,0,0Zm-83.98-68.98c-.12-.19-.26-.39-.39-.58-.03-.04-.05-.08-.08-.12-6.49-9.75-12.05-20.08-16.65-30.97-.11-.26-.21-.51-.32-.76,0-.05-.03-.09-.05-.13-.1-.22-.19-.43-.27-.65-.02-.05-.04-.09-.06-.14-4.6-11.17-8.08-22.68-10.44-34.43,0-.05-.02-.09-.03-.14-.04-.24-.09-.46-.14-.69-.01-.05-.02-.1-.03-.15-2.28-11.71-3.44-23.67-3.47-35.8h45.62c.03,9.19.93,18.18,2.62,26.89.07.33.13.66.2.99,1.8,8.95,4.44,17.6,7.83,25.87.13.3.26.61.38.92,3.51,8.38,7.8,16.35,12.77,23.83.18.28.37.55.55.82,5.06,7.5,10.8,14.5,17.16,20.89l-32.25,32.25c-8.56-8.58-16.19-17.87-22.87-27.78-.03-.04-.05-.08-.08-.12Zm-17.82-176.77l42.16,17.46c-3.39,8.26-6.03,16.91-7.83,25.86l-44.77-8.9c2.36-11.75,5.84-23.25,10.44-34.42,0,0,0,0,0,0Zm55.55-5.89c.18-.29.37-.57.57-.86.17-.28.36-.55.55-.83,4.97-7.35,10.66-14.28,17.06-20.71.11-.12.23-.24.35-.36s.24-.24.36-.35c6.43-6.39,13.36-12.09,20.71-17.05.28-.2.55-.39.83-.56,5.7-3.81,11.64-7.17,17.79-10.08.33-.16.66-.31,1-.45,1.6-.76,3.22-1.47,4.86-2.15.31-.14.62-.26.93-.39,8.27-3.39,16.86-5.99,25.69-7.75.33-.07.66-.14.98-.19,8.71-1.69,17.65-2.57,26.71-2.6h1c9.06.03,17.99.91,26.7,2.6.33.05.66.12.98.19,8.83,1.76,17.43,4.36,25.7,7.75.31.13.62.26.92.39,8.24,3.44,16.16,7.68,23.65,12.68.28.17.55.36.83.56,7.35,4.96,14.29,10.66,20.72,17.05.12.11.24.23.36.35.12.12.23.23.35.35,6.39,6.43,12.09,13.37,17.05,20.72.2.27.38.55.56.82,5,7.49,9.24,15.41,12.68,23.66.14.31.26.62.39.93,3.39,8.27,5.99,16.87,7.76,25.69.06.33.13.66.19.98,1.68,8.71,2.56,17.64,2.59,26.71v1c-.03,9.06-.91,17.99-2.59,26.7-.06.33-.13.66-.19.98-1.77,8.83-4.37,17.43-7.76,25.7-.13.31-.26.62-.39.92-3.44,8.25-7.68,16.17-12.68,23.66-.18.28-.36.56-.55.83-4.97,7.35-10.67,14.29-17.06,20.71-.11.12-.23.24-.35.36-.12.12-.24.24-.36.35-6.43,6.39-13.37,12.09-20.72,17.05-.28.2-.55.39-.83.56-7.49,5-15.41,9.24-23.65,12.68-.3.13-.61.26-.92.39-8.27,3.39-16.87,5.99-25.7,7.75-.32.07-.65.14-.98.19-8.71,1.69-17.64,2.57-26.7,2.6h-1c-9.06-.03-18-.91-26.71-2.6-.32-.05-.65-.12-.98-.19-8.83-1.76-17.42-4.36-25.69-7.75-.31-.13-.62-.25-.93-.39-8.24-3.44-16.16-7.68-23.65-12.68-.28-.17-.55-.36-.83-.56-7.35-4.96-14.29-10.66-20.72-17.05-.12-.12-.23-.23-.35-.35-.12-.12-.24-.24-.35-.36-6.4-6.43-12.1-13.36-17.06-20.72-.19-.27-.38-.54-.56-.82-4.99-7.49-9.23-15.41-12.67-23.66-.13-.3-.26-.61-.39-.92-3.39-8.27-5.99-16.87-7.76-25.7-.06-.32-.13-.65-.19-.98-1.68-8.71-2.56-17.64-2.59-26.7v-1c.03-9.07.91-18,2.59-26.71.06-.32.13-.65.19-.98,1.77-8.82,4.37-17.42,7.76-25.69.13-.31.25-.62.39-.93,3.16-7.57,6.99-14.85,11.46-21.79.21-.34.42-.67.65-1Zm59.22-65.14l4.49,10.85c-1.51.63-3.01,1.29-4.49,1.98v-12.83Zm0-36.18c7.34-2.46,14.81-4.44,22.38-5.96l8.9,44.77c-8.95,1.8-17.6,4.44-25.86,7.83l-5.42-13.08v-33.56Zm96.81-5.99s.09.02.14.03c11.76,2.36,23.26,5.84,34.43,10.45.04.01.09.03.13.05.22.08.44.17.66.27.05.02.09.04.14.06.24.1.5.2.75.31,10.88,4.6,21.22,10.16,30.96,16.66.04.03.08.05.12.08.2.13.4.26.59.39.04.03.08.05.12.08h0c9.91,6.68,19.19,14.3,27.77,22.86h0l-32.25,32.25h0c-6.39-6.35-13.38-12.1-20.88-17.16-.27-.18-.55-.37-.83-.55-7.47-4.97-15.45-9.25-23.83-12.76-.3-.13-.61-.26-.92-.39-8.27-3.39-16.92-6.03-25.87-7.83-.33-.07-.66-.13-.99-.2-8.71-1.69-17.7-2.59-26.89-2.62v-45.62c12.13.03,24.09,1.2,35.8,3.47.05,0,.1.02.15.03.23.05.45.1.69.14Zm38.85,3.82c11.48,4.86,22.38,10.74,32.64,17.6l-3.89,5.83c-9.99-6.64-20.64-12.37-31.84-17.04l2.72-6.55c.12.06.25.11.37.16Zm63.07,42.73c8.89,8.96,16.82,18.64,23.75,28.97.19.27.37.55.56.82,6.69,10.09,12.45,20.81,17.22,32.08.14.32.27.65.41.97l-6.31,2.61c-4.67-11.2-10.39-21.86-17.04-31.84-.03-.04-.05-.08-.08-.12-.14-.2-.26-.39-.39-.58-.03-.04-.05-.08-.08-.12-6.75-10.02-14.44-19.36-22.94-27.89h0s4.9-4.9,4.9-4.9h0Zm53.16,99.61c.07.33.13.65.2.98,2.36,12.19,3.57,24.64,3.6,37.27v1c-.03,12.63-1.24,25.07-3.6,37.26-.07.33-.13.65-.2.98h0c-2.45,12.25-6.06,24.22-10.84,35.85l-6.31-2.62c4.56-11.03,8.08-22.58,10.47-34.55.01-.05.02-.1.03-.15.06-.23.1-.46.14-.7.01-.05.02-.09.03-.14,2.27-11.63,3.48-23.64,3.51-35.93v-1c-.03-12.3-1.24-24.31-3.51-35.94-.01-.05-.02-.09-.03-.14-.04-.24-.09-.48-.14-.7,0-.05-.02-.1-.03-.15-2.39-11.97-5.92-23.52-10.46-34.55l6.3-2.61c4.78,11.63,8.4,23.6,10.84,35.84Zm-73.09,117.75c4.97-7.48,9.26-15.45,12.76-23.83l42.15,17.46c-.1.25-.2.51-.31.76-4.6,10.89-10.16,21.22-16.65,30.97l-37.95-25.36Zm14.54-211.97c8.55,8.58,16.18,17.87,22.86,27.78l-37.96,25.36c-5.05-7.5-10.8-14.5-17.15-20.89l32.25-32.25Zm23.41,28.6c6.49,9.75,12.05,20.08,16.65,30.97.11.25.21.51.31.76l-42.15,17.46c-3.51-8.38-7.8-16.35-12.76-23.83l37.95-25.36Zm17.35,32.66c4.6,11.17,8.08,22.67,10.44,34.42l-44.76,8.9c-1.8-8.95-4.44-17.6-7.83-25.86l42.15-17.46Zm10.64,35.41c2.27,11.7,3.44,23.66,3.47,35.8h-45.61c-.03-9.2-.93-18.19-2.63-26.9l44.77-8.9Zm3.47,36.8c-.03,12.13-1.2,24.09-3.47,35.79l-44.76-8.9c1.69-8.71,2.59-17.7,2.62-26.89h45.61Zm-3.67,36.78c-2.36,11.76-5.84,23.25-10.45,34.42l-42.14-17.45c3.39-8.27,6.03-16.92,7.83-25.87l44.76,8.9Zm-10.17,35.62l6.3,2.61c-.14.33-.27.65-.41.98-4.77,11.26-10.52,21.98-17.22,32.07l-5.72-3.82c6.64-9.99,12.37-20.64,17.05-31.84Zm-41.24-207.07c-8.54-8.5-17.87-16.18-27.9-22.92l3.9-5.84c10.32,6.97,19.96,14.94,28.9,23.86l-4.9,4.9Zm-133.96-8.76c-9.2.03-18.19.93-26.9,2.63l-8.91-44.78c11.71-2.27,23.67-3.44,35.81-3.47v45.62Zm-131.39,87.75l-42.16-17.46c.1-.25.2-.5.31-.76.45-1.07.92-2.14,1.39-3.2h51.66c-4.31,6.77-8.07,13.94-11.2,21.42Zm-8.41,27.78c-1.7,8.71-2.6,17.7-2.63,26.9h-45.62c.03-12.14,1.19-24.1,3.47-35.81l44.78,8.91Zm39.58,128.82c6.39,6.35,13.39,12.1,20.89,17.15l-25.36,37.95c-9.91-6.67-19.2-14.3-27.78-22.85l32.25-32.25Zm46.47,30.86c8.26,3.39,16.91,6.03,25.86,7.83l-8.9,44.76c-11.75-2.36-23.25-5.84-34.42-10.43,0,0,0,0,0,0l17.46-42.16Zm26.85,8.02c8.71,1.7,17.7,2.6,26.9,2.63v45.61c-12.14-.03-24.1-1.19-35.8-3.47,0,0,0,0,0,0l8.9-44.77Zm179.89,12.9l36.05,36.05h0c-12.26,12.22-25.52,23.12-39.68,32.64l-28.3-42.35c11.47-7.75,22.17-16.58,31.93-26.34Zm.71-.71c9.72-9.79,18.51-20.5,26.22-32l42.47,28.37c-9.52,14.16-20.42,27.42-32.64,39.68l-36.05-36.05Zm26.78-32.83c7.6-11.45,14.15-23.66,19.49-36.5l47.2,19.55c-.16.42-.34.85-.52,1.27-6.54,15.49-14.46,30.19-23.71,44.05l-42.46-28.37Zm19.88-37.42c5.19-12.64,9.23-25.89,11.96-39.6l50.16,9.98c-3.36,16.79-8.33,33.22-14.92,49.17l-47.2-19.55Zm12.16-40.59c2.59-13.32,3.97-27.08,4-41.15h51.12c-.03,17.33-1.7,34.41-4.97,51.13l-50.15-9.98Zm4-42.15c-.03-14.08-1.41-27.84-4-41.16l50.15-9.98c3.27,16.72,4.94,33.8,4.97,51.14h-51.12Zm-4.2-42.15c-2.74-13.71-6.77-26.95-11.97-39.59l47.21-19.56c6.59,15.96,11.56,32.38,14.92,49.17l-50.16,9.98Zm-12.35-40.52c-5.34-12.84-11.89-25.05-19.5-36.49l42.47-28.38c9.25,13.86,17.17,28.56,23.71,44.05.18.42.36.85.53,1.27l-47.21,19.55Zm-20.05-37.32c-7.71-11.5-16.5-22.22-26.22-32.01h0s36.05-36.05,36.05-36.05c12.21,12.26,23.11,25.52,32.64,39.68l-42.47,28.38Zm-26.92-32.72c-9.76-9.75-20.46-18.58-31.93-26.34l28.29-42.34c14.16,9.52,27.42,20.42,39.68,32.64l-36.04,36.04Zm-32.77-26.89c-11.43-7.65-23.63-14.24-36.46-19.62l19.45-46.96c.42.17.84.34,1.26.52,15.48,6.55,30.19,14.47,44.04,23.72l-28.29,42.34Zm-37.39-20.01c-12.65-5.25-25.9-9.33-39.62-12.1l9.9-49.78c16.79,3.36,33.22,8.33,49.17,14.92l-19.45,46.96Zm-7.65,18.48l-2.71,6.54c-11.04-4.54-22.59-8.07-34.56-10.46l1.4-7.06c12.25,2.49,24.24,6.15,35.87,10.98Zm-38.26-4.12c-11.63-2.27-23.63-3.48-35.93-3.51v-7.26c12.66.05,25.13,1.3,37.33,3.72l-1.4,7.05Zm-36.93-3.51c-12.3.03-24.31,1.24-35.94,3.51l-1.44-7.24c12.22-2.35,24.71-3.54,37.38-3.54v7.27Zm-36.93,3.71c-7.59,1.52-15.01,3.49-22.24,5.89v-7.8c6.83-2.17,13.77-3.95,20.8-5.34l1.44,7.25Zm-135.69,108.95c-.54,1.23-1.07,2.45-1.58,3.69l-7.15-2.96c.09-.21.17-.41.26-.62,2.5-5.91,5.27-11.66,8.31-17.26v17.15h.16Zm136.68,262.34c11.63,2.27,23.64,3.48,35.94,3.51v7.27c-12.67,0-25.16-1.19-37.38-3.54l1.44-7.24Zm79.16,26.46c13.72-2.77,26.97-6.85,39.62-12.1l18.23,44.01h-51.51l-6.34-31.91Zm40.54-12.48c12.83-5.39,25.04-11.98,36.47-19.63l28.29,42.35c-12.45,8.3-25.58,15.54-39.35,21.67h-7.02l-18.39-44.39Zm65.31,23.53l13.93,20.86h-51.41c13.09-5.96,25.62-12.95,37.48-20.86Zm.83-.55c14.32-9.63,27.66-20.61,39.84-32.75l31.44,31.44c-8.08,8.07-16.55,15.65-25.36,22.72h-31.61l-14.31-21.41Zm71.99-.6l22.01,22.01h-46.52c8.55-6.91,16.73-14.25,24.51-22.01Zm-31.44-32.86c12.14-12.18,23.12-25.52,32.75-39.84l36.99,24.72c-11.17,16.62-23.96,32.18-38.3,46.56l-31.44-31.44Zm33.3-40.67c9.5-14.25,17.68-29.47,24.35-45.47l41.08,17.01c-.21.52-.43,1.05-.65,1.57-7.67,18.14-16.96,35.38-27.79,51.61l-36.99-24.72Zm24.73-46.4c6.51-15.75,11.55-32.26,14.95-49.36l43.64,8.68c-3.93,19.71-9.77,38.98-17.51,57.7l-41.08-17.02Zm15.15-50.35c3.26-16.61,4.98-33.77,5.01-51.32h44.46c-.03,20.34-1.99,40.38-5.84,60l-43.63-8.68Zm5.01-52.32c-.03-17.56-1.75-34.72-5.01-51.33l43.63-8.68c3.85,19.63,5.81,39.67,5.84,60.01h-44.46Zm-5.21-52.32c-3.41-17.1-8.45-33.61-14.95-49.36l41.08-17.01c7.74,18.71,13.58,37.99,17.51,57.69l-43.64,8.68Zm-15.33-50.28c-6.67-16.01-14.84-31.23-24.35-45.48l36.99-24.71c10.83,16.23,20.12,33.47,27.79,51.61.22.52.44,1.04.65,1.56l-41.08,17.02Zm-58.35-86.86c-12.18-12.14-25.52-23.11-39.85-32.74l24.72-36.99c16.62,11.17,32.18,23.96,46.56,38.3l-31.43,31.43Zm-40.68-33.3c-14.25-9.5-29.47-17.68-45.47-24.35l17.01-41.07c.52.21,1.04.43,1.56.65,18.15,7.67,35.38,16.95,51.61,27.79l-24.71,36.98Zm-46.39-24.73c-15.76-6.5-32.27-11.55-49.37-14.95l8.68-43.63c19.71,3.92,38.99,9.77,57.7,17.51l-17.01,41.07Zm-50.54-14.19l-9.9,49.77c-13.35-2.64-27.13-4.05-41.24-4.11v-50.63c17.33.03,34.42,1.7,51.14,4.97Zm-52.14,45.65c-14.12,0-27.92,1.35-41.29,3.93l-9.86-49.58c16.73-3.27,33.82-4.94,51.15-4.97v50.62Zm-42.27,4.13c-5.72,1.13-11.36,2.48-16.9,4.06v-8.69h-29.68l-12.45-30.04c15.96-6.59,32.38-11.56,49.17-14.92l9.86,49.59Zm-47.67-4.63h-13.49c-3.31-2.68-7.04-4.84-11.2-6.47-5.86-2.24-12.34-3.17-19.44-2.8-.87.12-1.71.22-2.52.28s-1.53.22-2.15.47c-.25.25-.56.4-.94.46-.37.07-.68.16-.93.28-.5.26-.59,0-.28-.74.2-.48.53-1.08,1.01-1.81,11.58-7.17,23.73-13.44,36.39-18.8.42-.18.84-.35,1.26-.52l12.29,29.65Zm-96.09,54.46c1.5,4.86,3.8,9.16,6.92,12.9,1.87,2.49,3.97,4.73,6.33,6.74v12.42c-2.36,3.12-4.64,6.31-6.84,9.56l-41.78-27.92c9.48-14.09,20.32-27.28,32.46-39.48-.13,1.06-.21,2.12-.27,3.17-.37,7.1.69,14.64,3.18,22.61Zm5.86,42.45c-7.67,11.47-14.27,23.72-19.65,36.6l-46.37-19.21c.18-.42.35-.84.53-1.26,6.55-15.49,14.47-30.19,23.71-44.05l41.78,27.92Zm-20.04,37.52c-5.24,12.69-9.31,25.99-12.07,39.76l-49.21-9.79c3.36-16.79,8.33-33.21,14.92-49.17l46.36,19.2Zm-12.27,40.74c-2.62,13.39-4.01,27.21-4.04,41.36h-50.13c.03-17.34,1.69-34.43,4.97-51.15l49.2,9.79Zm-4.04,42.36c.03,14.14,1.42,27.97,4.04,41.35l-49.2,9.79c-3.28-16.72-4.94-33.81-4.97-51.14h50.13Zm4.24,42.33c2.76,13.77,6.83,27.08,12.07,39.77l-46.36,19.2c-6.58-15.95-11.56-32.38-14.92-49.18l49.21-9.79Zm12.45,40.69c5.39,12.88,11.99,25.12,19.66,36.6l-41.78,27.91c-9.24-13.86-17.16-28.56-23.71-44.05-.18-.42-.35-.84-.53-1.26l46.36-19.2Zm20.21,37.42c7.77,11.52,16.62,22.25,26.42,32.05l-35.55,35.55c-12.22-12.26-23.12-25.52-32.65-39.68l41.78-27.92Zm27.12,32.76c9.83,9.75,20.59,18.56,32.13,26.3l-27.99,41.88c-14.17-9.52-27.43-20.42-39.69-32.63h0l35.55-35.55Zm32.96,26.85c11.48,7.62,23.74,14.18,36.62,19.52h0s-19.3,46.61-19.3,46.61c-.42-.17-.85-.35-1.27-.53-15.48-6.55-30.19-14.47-44.04-23.71l27.99-41.89Zm37.55,19.91h0c12.68,5.19,25.97,9.21,39.72,11.93,0,0,0,0,0,0l-9.86,49.59c-16.79-3.36-33.21-8.33-49.17-14.91l19.31-46.61Zm40.71,12.13c13.36,2.58,27.16,3.93,41.28,3.93v50.62c-17.33-.03-34.42-1.69-51.14-4.97l9.86-49.58Zm42.28,55.55c10.12-.02,20.11-.6,29.93-1.71v44.71c-9.89.96-19.88,1.44-29.93,1.46v-44.46Zm286.93,40.58v-20.58l10.48,10.48c-3.44,3.43-6.94,6.81-10.48,10.1Zm0-22v-42.61h-42.61l-22.72-22.72c14.24-14.28,27.11-29.93,38.4-46.73l90.01,60.14c-15.12,22.54-32.45,43.63-51.89,63.11l-11.19-11.19ZM457.93,145.83v44.45c-17.56.03-34.73,1.75-51.34,5.01l-8.67-43.62c19.62-3.86,39.67-5.81,60.01-5.84Zm-61,6.03l8.68,43.63c-17.1,3.41-33.61,8.45-49.36,14.95l-17.01-41.07c18.71-7.74,37.99-13.58,57.69-17.51Zm-60.18,18.54c.52-.22,1.04-.44,1.56-.65l17.01,41.07c-12.45,5.19-24.42,11.29-35.83,18.21.59-.8,1.17-1.64,1.75-2.51.75-1.12,1.56-2.24,2.43-3.36,1.37-1.99,2.81-3.99,4.3-5.98,1.5-1.99,2.93-4.05,4.3-6.17,1.37-1.99,2.8-3.99,4.3-5.98,1.5-1.99,2.93-3.99,4.3-5.98.87-1,1.68-2.03,2.43-3.09.75-1.05,1.49-2.08,2.24-3.08,1-1.37,1.24-2.49.75-3.36-.5-.87-1.56-1.31-3.18-1.31h-20.75c-1.62,0-3.3.44-5.04,1.31-1.75.87-3.12,1.99-4.11,3.36-1.5,1.99-2.99,4.02-4.49,6.07-1.49,2.06-3.05,4.21-4.67,6.45-2.24,3.24-4.43,6.39-6.54,9.44-.21.3-.42.61-.64.91l-11.73-17.56c16.23-10.83,33.47-20.12,51.61-27.79Zm-52.44,28.35l11.95,17.89c-1.68,2.42-3.32,4.78-4.92,7.08-4.11,5.98-7.66,11.4-10.65,16.26-3.12,4.74-5.24,8.35-6.36,10.84-2.61,6.1-4.32,11.98-5.13,17.63,0,0-.02.01-.03.02l-31.43-31.43c14.38-14.34,29.94-27.13,46.57-38.29Zm-47.27,38.99l31.43,31.43c-12.14,12.18-23.11,25.53-32.75,39.85l-36.98-24.71c11.17-16.63,23.96-32.19,38.3-46.57Zm-66.65,99.01c7.67-18.14,16.97-35.38,27.8-51.61l36.98,24.71c-9.5,14.25-17.68,29.47-24.35,45.47l-41.08-17.01c.21-.52.43-1.04.65-1.56Zm-1.03,2.49l41.08,17.01c-6.5,15.75-11.54,32.26-14.95,49.36l-43.63-8.68c3.92-19.7,9.76-38.98,17.5-57.69Zm-17.69,58.68l43.62,8.67c-3.26,16.61-4.98,33.78-5.01,51.34h-44.45c.03-20.34,1.99-40.38,5.84-60.01Zm-5.84,61.01h44.45c.03,17.56,1.75,34.72,5.01,51.33l-43.62,8.67c-3.85-19.62-5.81-39.66-5.84-60Zm6.03,60.99l43.63-8.68c3.4,17.1,8.45,33.61,14.95,49.37l-41.08,17.01c-7.74-18.72-13.58-37.99-17.5-57.7Zm18.53,60.19c-.22-.52-.44-1.04-.65-1.56l41.08-17.02c6.67,16,14.85,31.22,24.35,45.47l-36.98,24.71c-10.84-16.23-20.13-33.46-27.8-51.6Zm28.35,52.43l36.98-24.71c9.64,14.32,20.61,27.67,32.75,39.85l-31.43,31.43c-14.34-14.38-27.14-29.94-38.3-46.57Zm39,47.28l31.44-31.44c12.18,12.14,25.52,23.12,39.84,32.75l-24.71,36.98c-16.63-11.16-32.19-23.95-46.57-38.29Zm99.01,66.64c-18.14-7.67-35.38-16.96-51.61-27.79l24.71-36.99c14.25,9.51,29.47,17.68,45.48,24.35l-17.02,41.08c-.52-.21-1.04-.43-1.56-.65Zm2.49,1.03l17.01-41.08c15.75,6.5,32.26,11.54,49.36,14.95l-8.68,43.64c-19.7-3.93-38.98-9.77-57.69-17.51Zm58.68,17.7l8.68-43.63c16.61,3.26,33.77,4.98,51.33,5.01v44.46c-20.34-.03-40.39-1.99-60.01-5.84Zm61.01,6.84c10.1-.02,20.08-.51,29.93-1.46v29.74h37.06l14.32,72.02c-26.59,5.23-53.75,7.88-81.31,7.91v-108.21Zm-29.69,108.21h-54.21l1.39-6.96c17.25,3.4,34.88,5.75,52.82,6.96Zm-53.81-7.15l-1.42,7.15h-89.76l12.8-30.9c25.01,10.35,51.23,18.35,78.38,23.75Zm-79.31-24.13l-12.8,30.89h0s-63.47-63.47-63.47-63.47l4.07-6.09c22.62,15.12,46.78,28.1,72.2,38.67Zm-73.03-39.22l-3.96,5.92-38.42-38.41c13.41,11.69,27.56,22.55,42.38,32.49Zm-83.48-73.59l-38.42-38.43,5.92-3.96c9.94,14.82,20.8,28.98,32.5,42.39Zm-33.05-43.21l-6.09,4.07-63.48-63.48,30.9-12.8c10.57,25.42,23.56,49.59,38.67,72.21Zm-39.05-73.13l-30.9,12.8v-89.77l7.15-1.42c5.4,27.16,13.41,53.38,23.75,78.39Zm-23.94-79.37l-6.96,1.38v-54.2c1.22,17.94,3.56,35.57,6.96,52.82Zm-7.96-81.51v83.09l-26.02,5.18c-5.69-28.86-8.56-58.34-8.59-88.27h34.61Zm0,84.11v89.98l-.08.04c-11.4-27.53-19.99-55.89-25.75-84.88l25.83-5.14Zm.3,90.94l.09-.03h0s63.62,63.62,63.62,63.62h0s-21.88,14.62-21.88,14.62c-15.9-23.8-29.54-49.1-40.79-75.71-.35-.83-.7-1.66-1.04-2.5Zm42.39,79.04l22.04-14.73,58.75,58.75s0,0,.01.01l-24.47,24.47c-21.11-21.14-39.92-44.03-56.33-68.5Zm81.51,44.74h0s58.75,58.75,58.75,58.75h0l-14.73,22.05c-24.47-16.42-47.36-35.23-68.5-56.33l24.48-24.47Zm44.85,81.35l14.62-21.88h0l63.63,63.63h0s-.04.08-.04.08c-.83-.33-1.66-.68-2.49-1.03-26.63-11.26-51.91-24.89-75.72-40.8Zm79.18,42.13h89.97l-5.14,25.84c-28.99-5.76-57.34-14.36-84.87-25.75l.04-.09Zm85.81,26.03l5.18-26.03h83.1v34.62c-29.93-.03-59.41-2.91-88.28-8.59Zm155.92,3.71c-7.39,1.09-14.82,2-22.29,2.72-7.43.72-14.9,1.27-22.4,1.63-7.29.35-14.61.53-21.95.53v-34.62c9.64-.01,19.21-.35,28.69-1,17.94-1.22,35.56-3.56,52.81-6.96l1.39,6.96.2,1,5.18,26.03c-7.17,1.41-14.38,2.65-21.63,3.71Zm87.01-21.75h0c-7.06,2.54-14.16,4.89-21.31,7.06-7.17,2.18-14.39,4.17-21.65,5.99-7.1,1.77-14.25,3.37-21.43,4.8l-5.14-25.84-.2-1-1.42-7.15c27.16-5.4,53.38-13.41,78.39-23.75l12.8,30.9.41,1,.04.09c-6.77,2.81-13.6,5.44-20.48,7.9Zm81.07-38.37c-6.41,3.85-12.92,7.55-19.54,11.07-6.58,3.53-13.27,6.9-20.05,10.1-5.79,2.75-11.65,5.37-17.58,7.88-.83.35-1.66.7-2.5,1.04l-.04-.09-.41-1-12.8-30.9c25.42-10.57,49.58-23.55,72.2-38.67l4.07,6.1.57.84,14.62,21.89c-6.08,4.06-12.26,7.98-18.54,11.74Zm71.98-53.49c-5.55,5.04-11.21,9.94-16.98,14.68-5.79,4.77-11.69,9.38-17.69,13.84-5.88,4.37-11.86,8.59-17.94,12.67l-14.73-22.05-.57-.84-3.96-5.93c4.56-3.05,9.05-6.2,13.48-9.43h38.62v-31.37l11.19-11.19h0l24.47,24.48c-5.19,5.19-10.49,10.23-15.89,15.14Zm60.26-66.41c-4.46,6-9.07,11.89-13.83,17.68-4.75,5.77-9.65,11.43-14.69,16.99-4.91,5.4-9.96,10.7-15.14,15.89l-24.48-24.47h0c6.74-6.76,13.25-13.74,19.52-20.93,11.68-13.4,22.53-27.54,32.47-42.35l5.93,3.95.84.57,22.05,14.73c-4.07,6.08-8.3,12.06-12.67,17.94Zm54.02-94.48c-11.26,26.61-24.9,51.91-40.8,75.71l-21.88-14.62h0s63.63-63.63,63.63-63.63h0s.09.04.09.04c-.34.84-.69,1.67-1.04,2.5Zm1.42-3.42l-.09-.04v-89.98l25.84,5.14c-5.76,28.99-14.36,57.35-25.75,84.88Zm25.94-85.86l-26.03-5.18v-83.09h34.62c-.03,29.93-2.9,59.41-8.59,88.27Z"/>
      <path class="cls-1" d="m35.61,374.83l1,.2,6.96,1.38.95.19c.06-.33.13-.65.2-.98l-.96-.19-7.15-1.42-1-.2-25.83-5.14-.87-.17-.2.98.88.17,26.02,5.18Z"/>
      <path class="cls-1" d="m218.56,100.34l.57.85,3.95,5.92.54.81c.27-.2.55-.38.83-.56l-.54-.8-4.06-6.09-.57-.85-14.62-21.87-.51-.77-.41.27-.42.29.51.76,14.73,22.04Z"/>
      <path class="cls-1" d="m99.62,219.28l.85.57,6.09,4.07.8.53c.18-.28.36-.56.55-.83l-.8-.53-5.92-3.96-.85-.57-22.04-14.72-.77-.52-.27.42-.28.41.77.51,21.87,14.62Z"/>
      <path class="cls-1" d="m373.81,35.61l.2,1,1.42,7.15.19.96c.33-.07.65-.14.98-.2l-.19-.96-1.38-6.95-.2-1-5.18-26.02-.17-.88-.48.1-.5.1.17.87,5.14,25.83Z"/>
      <path class="cls-1" d="m35.61,283.84l1,.41,30.9,12.8.92.38c.12-.31.25-.62.39-.93l-.92-.38-30.9-12.8-1-.42-.08-.03-.83-.34-.39.93.83.34.08.04Z"/>
      <path class="cls-1" d="m282.9,36l.42,1,12.8,30.89.38.93c.31-.14.62-.27.93-.39l-.38-.93-12.8-30.89-.41-1-.04-.08-.34-.83-.46.19-.47.2.34.83.03.08Z"/>
      <polygon class="cls-1" points="438.54 793.48 436.02 855.12 447.82 855.61 450.35 793.96 438.54 793.48"/>
      <path class="cls-1" d="m397.19,837.27c-.91.72-1.98,1.24-3.22,1.58-1.24.34-2.52.51-3.84.52-1.31.01-2.47-.08-3.47-.27-1.12-.22-2.21-.5-3.27-.87-.32-.1-.64-.22-.95-.35-1.34-.52-2.63-1.17-3.85-1.95-2.46-1.55-4.93-3.6-7.43-6.13l-8.2,7.89c1.63,1.69,3.17,3.17,4.61,4.44,1.45,1.28,2.97,2.4,4.57,3.36,1.59.96,3.35,1.8,5.28,2.51.88.32,1.82.62,2.83.89.31.09.64.18.97.26.92.23,1.88.44,2.9.63,2.54.49,5.24.71,8.08.68,2.84-.04,5.51-.52,8-1.45,2.5-.93,4.69-2.43,6.57-4.51,1.89-2.07,3.16-4.88,3.83-8.42.47-2.43.47-4.62.01-6.57s-1.24-3.7-2.32-5.25-2.36-2.91-3.86-4.08c-1.5-1.18-3.05-2.19-4.66-3.04-1.62-.85-3.2-1.58-4.74-2.18-1.55-.61-2.91-1.14-4.08-1.59-.83-.32-1.63-.64-2.43-.96-.31-.14-.63-.27-.94-.4-.57-.24-1.14-.48-1.69-.72-1.62-.71-2.99-1.46-4.13-2.25-1.14-.79-2-1.68-2.59-2.68-.58-1-.76-2.1-.52-3.32.17-.94.6-1.85,1.28-2.72.69-.87,1.59-1.59,2.73-2.14,1.14-.56,2.47-.94,4-1.14,1.19-.15,2.49-.13,3.89.05.33.04.65.09.99.15.07.01.15.03.22.04,3.54.68,6.78,2.08,9.73,4.21,2.95,2.14,5.74,4.54,8.38,7.22l8.07-8.09c-1.63-1.69-3.23-3.25-4.79-4.69-1.55-1.44-3.25-2.75-5.09-3.93-1.84-1.18-3.92-2.23-6.23-3.16-2.31-.92-5.03-1.69-8.17-2.27,0-.01-.02-.01-.03-.01-.32-.06-.63-.12-.95-.17-3.07-.52-5.95-.67-8.64-.45-2.97.24-5.62.92-7.95,2.06-2.33,1.13-4.27,2.75-5.82,4.86-1.55,2.11-2.62,4.74-3.22,7.89-.51,2.71-.55,5.1-.11,7.16.44,2.06,1.19,3.86,2.24,5.41,1.05,1.54,2.33,2.89,3.83,4.03,1.5,1.14,3.05,2.12,4.64,2.94,1.59.82,3.15,1.51,4.67,2.09,1.1.42,2.09.81,2.97,1.18.33.14.64.28.93.41.02,0,.03,0,.05.02,1.47.68,3,1.37,4.59,2.07,1.58.7,3.01,1.46,4.29,2.28,1.28.81,2.28,1.72,3.01,2.72.72.99.97,2.1.74,3.32-.23,1.21-.8,2.18-1.71,2.89Z"/>
      <polygon class="cls-1" points="310.79 816.18 309.85 815.81 294.2 809.61 290.34 819.34 305.85 825.48 306.78 825.85 332.64 836.09 355.39 778.66 330.42 768.77 329.49 768.4 313.1 761.9 309.18 771.79 325.42 778.22 326.35 778.59 340.49 784.19 335.14 797.69 320.8 792 319.87 791.63 307.37 786.68 303.42 796.65 315.76 801.54 316.7 801.91 331.2 807.65 325.51 822.01 310.79 816.18"/>
      <polygon class="cls-1" points="251.03 767.92 220.97 778.06 233.17 785.92 240.75 783.3 242.32 782.76 270.78 772.92 253.76 799.31 263.69 805.71 297.18 753.79 287.25 747.39 272.01 771.01 267.51 745.06 267.26 743.63 265.47 733.34 252.35 724.88 258.19 757.19 258.45 758.61 259.61 765.02 252.59 767.39 251.03 767.92"/>
      <path class="cls-1" d="m195.95,669.97l-22.06,65.7.82.84,7.15-2.22,2.04-.63,57-17.7-8.97-9.17-10.24,3.4-7.08-7.24-.7-.71-12.58-12.87,3.58-10.23-8.96-9.17Zm10.68,39.55l.7.71,2.98,3.05-9.18,3.15-2.15.74-8.2,2.81,7.2-19.31,8.65,8.85Z"/>
      <rect x="128.4" y="664.13" width="61.7" height="11.81" transform="translate(-358.05 215.38) rotate(-35.32)"/>
      <path class="cls-1" d="m159.9,613.16c-2.35-1.92-4.93-3.26-7.74-4.02-2.8-.75-5.78-.9-8.92-.44-3.15.45-6.3,1.54-9.47,3.25l-34.07,18.44,5.62,10.39,34.07-18.44c1.04-.56,2.29-1.09,3.75-1.59,1.45-.5,2.99-.74,4.6-.72,1.61.03,3.18.44,4.7,1.25,1.53.8,2.87,2.27,4.02,4.4.67,1.24,1.06,2.41,1.19,3.53.12,1.12.09,2.17-.11,3.17-.19,1.01-.51,1.95-.96,2.83-.45.88-.94,1.66-1.48,2.33l9.34,7.14c2.65-3.49,4.13-7.31,4.44-11.47.31-4.17-.69-8.38-3-12.63-1.63-3.02-3.62-5.49-5.98-7.42Z"/>
      <path class="cls-1" d="m85.53,592.58c2.8,3.17,6.03,5.69,9.68,7.56,3.6,1.83,7.48,2.96,11.65,3.37.06.01.13.01.19.02.69.06,1.39.11,2.09.12,3.53.1,7.04-.42,10.53-1.56,4.23-1.37,7.93-3.45,11.1-6.26.73-.65,1.43-1.32,2.09-2.01.53-.55,1.04-1.12,1.52-1.71,1.54-1.84,2.85-3.83,3.94-5.96,1.87-3.65,3-7.58,3.41-11.79.41-4.22-.07-8.41-1.42-12.59-1.37-4.23-3.46-7.93-6.26-11.1-2.81-3.17-6.03-5.69-9.69-7.55-3.64-1.86-7.58-3-11.79-3.41-4.21-.4-8.44.08-12.66,1.45-4.18,1.35-7.87,3.44-11.06,6.25-3.2,2.81-5.73,6.04-7.6,9.69-1.86,3.65-2.99,7.59-3.4,11.8-.41,4.21.07,8.43,1.44,12.66,1.36,4.18,3.44,7.85,6.24,11.02Zm3.48-22.49c.35-2.68,1.15-5.18,2.4-7.51,1.26-2.33,2.94-4.39,5.05-6.2,2.11-1.8,4.47-3.13,7.09-3.98,2.68-.87,5.38-1.18,8.12-.95,2.74.23,5.31.92,7.72,2.05,2.41,1.14,4.54,2.69,6.39,4.66,1.85,1.97,3.21,4.29,4.08,6.96s1.13,5.34.78,8.02c-.34,2.68-1.15,5.19-2.44,7.52-1.28,2.34-2.96,4.4-5.04,6.2-2.08,1.8-4.46,3.13-7.14,4-2.62.85-5.31,1.16-8.08.93-2.76-.22-5.33-.91-7.72-2.05-2.38-1.15-4.5-2.7-6.35-4.67-1.85-1.97-3.21-4.29-4.07-6.96-.87-2.67-1.13-5.34-.79-8.02Z"/>
      <path class="cls-1" d="m113.51,506.33c-1.01,1.62-2.46,3.04-4.36,4.26-1.9,1.23-4.39,2.02-7.46,2.35l-36.52,4.03,1.3,11.74,36.57-4.03c3.92-.43,7.4-1.45,10.45-3.06,3.05-1.61,5.57-3.68,7.55-6.22,1.99-2.54,3.41-5.5,4.29-8.88.87-3.38,1.09-7.06.65-11.03-.44-4.03-1.46-7.59-3.05-10.7-1.59-3.11-3.62-5.69-6.11-7.73-2.49-2.05-5.4-3.51-8.73-4.39-3.32-.88-6.94-1.1-10.85-.67l-36.58,4.03,1.29,11.74,36.52-4.02c3.07-.34,5.67-.12,7.79.67,2.12.78,3.85,1.85,5.19,3.21,1.33,1.35,2.32,2.85,2.95,4.51.64,1.66,1.03,3.16,1.18,4.5.15,1.34.09,2.89-.17,4.64-.26,1.76-.89,3.44-1.9,5.05Z"/>
      <path class="cls-1" d="m73.75,418.52c.64-1.58,1.47-3.06,2.49-4.45,1.02-1.38,2.17-2.63,3.44-3.73,1.28-1.11,2.63-2.06,4.05-2.84l-3.54-11.39c-2.53,1.14-4.86,2.61-7.02,4.41-2.15,1.8-4.04,3.83-5.67,6.1-1.63,2.26-2.95,4.75-3.96,7.46-1.02,2.71-1.65,5.55-1.9,8.52-.36,4.38.14,8.57,1.5,12.58,1.36,4,3.37,7.57,6.02,10.7,2.64,3.13,5.83,5.69,9.56,7.7,3.73,2,7.78,3.18,12.16,3.54,4.37.37,8.56-.13,12.57-1.49,4.01-1.37,7.58-3.37,10.71-6.02,3.12-2.65,5.69-5.84,7.69-9.57,2-3.72,3.19-7.78,3.55-12.15.25-2.97.09-5.88-.46-8.72-.56-2.84-1.45-5.51-2.68-8.01s-2.77-4.82-4.59-6.95c-1.83-2.12-3.92-3.96-6.28-5.51l-5.37,10.64c1.27,1.01,2.46,2.17,3.57,3.48,1.1,1.3,2.04,2.72,2.82,4.25.78,1.54,1.35,3.14,1.72,4.8.37,1.67.48,3.38.34,5.11-.24,2.81-1.03,5.38-2.38,7.72-1.35,2.35-3.06,4.34-5.11,5.97-2.06,1.64-4.39,2.89-7,3.74-2.61.86-5.32,1.17-8.13.94-2.74-.23-5.35-.98-7.81-2.26-2.46-1.27-4.57-2.89-6.33-4.84-1.76-1.96-3.11-4.2-4.06-6.73-.95-2.54-1.3-5.21-1.07-8.01.14-1.74.53-3.4,1.17-4.99Z"/>
      <polygon class="cls-1" points="131.65 380.26 108.04 373.49 116.45 344.2 140.06 350.98 143.32 339.62 83.93 322.57 80.67 333.93 106.39 341.31 97.98 370.6 72.27 363.22 69 374.57 128.39 391.62 131.65 380.26"/>
      <path class="cls-1" d="m102.1,285.04c-.32,4.22.13,8.29,1.34,12.2,1.21,3.92,3.15,7.53,5.83,10.85,2.67,3.31,5.94,6,9.83,8.04,3.93,2.08,8.01,3.27,12.23,3.59,4.22.32,8.29-.13,12.2-1.34,3.92-1.22,7.53-3.15,10.83-5.79,3.3-2.65,5.98-5.92,8.03-9.8,2.07-3.93,3.26-8.01,3.58-12.23.32-4.22-.13-8.29-1.34-12.2-1.21-3.92-3.14-7.53-5.79-10.83-2.65-3.31-5.94-5.99-9.87-8.07-3.88-2.04-7.95-3.23-12.19-3.56-4.25-.33-8.33.11-12.25,1.32-3.91,1.21-7.52,3.14-10.82,5.79-3.31,2.65-6,5.94-8.07,9.87-2.04,3.88-3.23,7.93-3.54,12.16Zm11.2.73c.12-2.7.83-5.29,2.14-7.77s3.05-4.54,5.21-6.16c2.15-1.62,4.51-2.8,7.05-3.52s5.2-.96,7.96-.71c2.76.25,5.36,1.02,7.8,2.31,2.49,1.31,4.6,3.03,6.35,5.15,1.74,2.13,3.04,4.45,3.91,6.97.86,2.52,1.24,5.13,1.12,7.83-.12,2.69-.83,5.29-2.14,7.77s-3.04,4.54-5.2,6.16c-2.16,1.62-4.53,2.79-7.1,3.5-2.56.7-5.22.94-7.95.7-2.74-.23-5.35-1.01-7.84-2.32-2.44-1.29-4.54-3-6.31-5.13-1.77-2.14-3.07-4.46-3.92-6.97-.84-2.51-1.2-5.11-1.08-7.81Z"/>
      <rect x="442.82" y="86.41" width="61.7" height="11.82" transform="translate(362.2 561.85) rotate(-87.67)"/>
      <path class="cls-1" d="m523.26,130.31c.3.06.61.11.91.16,3.09.52,5.97.67,8.68.46,2.97-.24,5.61-.93,7.95-2.06,2.33-1.13,4.27-2.75,5.82-4.87,1.55-2.11,2.62-4.74,3.22-7.89.51-2.71.55-5.09.11-7.15s-1.19-3.86-2.24-5.41c-1.05-1.54-2.33-2.89-3.83-4.03-1.5-1.15-3.05-2.13-4.64-2.95-1.59-.81-3.15-1.51-4.67-2.09-1.11-.42-2.11-.82-3-1.19-.33-.14-.64-.27-.94-.41h-.01c-1.47-.68-3-1.38-4.59-2.08-1.58-.7-3.01-1.46-4.29-2.27-1.28-.82-2.28-1.73-3-2.72-.73-1-.98-2.11-.75-3.32.23-1.22.8-2.18,1.71-2.9.91-.71,1.98-1.24,3.22-1.58,1.24-.34,2.52-.51,3.84-.52,1.32,0,2.47.09,3.47.28,1.11.21,2.19.49,3.23.85.32.1.64.22.96.34,1.35.53,2.65,1.19,3.88,1.97,2.46,1.56,4.93,3.6,7.43,6.14l8.2-7.9c-1.63-1.68-3.17-3.16-4.61-4.44-1.45-1.27-2.97-2.39-4.56-3.35-1.6-.96-3.35-1.8-5.28-2.51-.89-.33-1.85-.63-2.88-.91-.31-.09-.63-.18-.96-.26-.91-.22-1.86-.43-2.87-.62-2.54-.48-5.23-.71-8.07-.67-2.84.03-5.51.51-8.01,1.44-2.5.93-4.69,2.43-6.57,4.51-1.88,2.08-3.16,4.88-3.83,8.42-.46,2.43-.46,4.62,0,6.57.46,1.95,1.23,3.7,2.31,5.25,1.08,1.55,2.37,2.91,3.86,4.09,1.5,1.17,3.05,2.18,4.67,3.03,1.61.85,3.19,1.58,4.73,2.19,1.55.61,2.91,1.14,4.08,1.59.81.31,1.61.63,2.39.95.31.13.63.26.94.39.59.24,1.16.49,1.73.74,1.62.7,2.99,1.45,4.13,2.24s2,1.68,2.59,2.68c.58,1,.76,2.11.52,3.32-.17.94-.6,1.85-1.29,2.72-.68.88-1.59,1.59-2.72,2.15-1.14.56-2.47.93-4,1.13-1.2.16-2.51.14-3.93-.05-.32-.04-.65-.09-.99-.16-.06,0-.13-.02-.19-.03-3.53-.67-6.78-2.07-9.72-4.21-2.95-2.13-5.74-4.54-8.38-7.22l-8.07,8.09c1.63,1.69,3.22,3.25,4.78,4.69,1.56,1.44,3.26,2.75,5.1,3.93,1.84,1.18,3.91,2.23,6.23,3.16,2.29.92,5.01,1.68,8.13,2.28.02,0,.05.01.07.01Z"/>
      <polygon class="cls-1" points="587.36 148.46 603.75 154.96 607.67 145.07 591.43 138.64 590.5 138.27 576.36 132.67 581.71 119.17 596.06 124.85 596.99 125.22 609.49 130.17 613.44 120.21 601.09 115.32 600.16 114.95 585.66 109.2 591.35 94.84 606.07 100.68 607 101.04 622.66 107.25 626.51 97.52 611.01 91.38 610.08 91.01 584.22 80.76 561.46 138.2 586.43 148.1 587.36 148.46"/>
      <polygon class="cls-1" points="629.61 169.47 644.84 145.85 649.35 171.8 649.59 173.23 651.38 183.51 664.51 191.98 658.66 159.65 658.41 158.24 657.25 151.84 664.26 149.47 665.82 148.95 695.89 138.8 683.69 130.93 676.1 133.55 674.54 134.09 646.08 143.93 663.09 117.55 653.16 111.14 619.68 163.06 629.61 169.47"/>
      <path class="cls-1" d="m684.93,210.07l10.24-3.4,7.07,7.24.7.71,12.58,12.87-3.58,10.22,8.97,9.18,22.06-65.7-.83-.84-7.15,2.22-2.05.64-56.98,17.69,8.97,9.17Zm30.8-9.65l2.15-.74,8.2-2.81-7.21,19.32-8.64-8.86-.7-.71-2.98-3.05,9.18-3.15Z"/>
      <rect x="726.76" y="240.92" width="61.7" height="11.81" transform="translate(-3.27 483.37) rotate(-35.32)"/>
      <path class="cls-1" d="m773.72,296.11c-1.46.5-2.99.74-4.6.72-1.62-.03-3.18-.44-4.71-1.25-1.52-.81-2.86-2.27-4.01-4.4-.67-1.24-1.07-2.41-1.19-3.53-.13-1.12-.09-2.18.1-3.18.2-1,.52-1.94.97-2.82.45-.89.94-1.66,1.47-2.34l-9.33-7.13c-2.66,3.48-4.14,7.31-4.44,11.47-.31,4.16.69,8.37,2.99,12.63,1.64,3.02,3.63,5.49,5.98,7.42,2.35,1.92,4.94,3.26,7.74,4.01,2.81.76,5.78.91,8.93.45,3.14-.45,6.3-1.54,9.47-3.25l34.07-18.44-5.63-10.39-34.07,18.44c-1.04.56-2.28,1.09-3.74,1.59Z"/>
      <path class="cls-1" d="m809.81,313.33c-.7-.07-1.41-.11-2.11-.12-3.53-.1-7.03.42-10.51,1.55-4.23,1.37-7.93,3.46-11.11,6.27-.72.64-1.41,1.3-2.07,1.99-.54.56-1.05,1.14-1.53,1.73-1.55,1.84-2.86,3.83-3.95,5.96-1.86,3.65-2.99,7.58-3.4,11.79-.41,4.22.06,8.41,1.42,12.59,1.37,4.22,3.46,7.92,6.26,11.1,2.8,3.17,6.03,5.69,9.68,7.55,3.65,1.86,7.58,3,11.8,3.4,4.21.41,8.43-.07,12.66-1.44,4.17-1.36,7.86-3.44,11.06-6.25,3.2-2.81,5.73-6.05,7.59-9.7,1.86-3.65,3-7.58,3.41-11.79.41-4.22-.08-8.44-1.45-12.67-1.35-4.17-3.43-7.84-6.23-11.02-2.81-3.17-6.03-5.68-9.68-7.55-3.61-1.83-7.49-2.96-11.66-3.37-.06-.01-.12-.01-.18-.02Zm13.17,18.46c1.85,1.97,3.21,4.29,4.08,6.96.86,2.67,1.13,5.34.78,8.02-.34,2.68-1.14,5.18-2.4,7.51-1.26,2.33-2.94,4.39-5.04,6.19-2.11,1.81-4.47,3.14-7.1,3.99-2.67.87-5.38,1.18-8.12.95-2.73-.23-5.31-.92-7.72-2.06-2.41-1.13-4.54-2.69-6.39-4.65-1.85-1.97-3.21-4.29-4.07-6.96-.87-2.67-1.13-5.35-.79-8.02.35-2.68,1.16-5.19,2.44-7.53,1.29-2.33,2.97-4.4,5.05-6.19,2.08-1.8,4.45-3.13,7.13-4,2.62-.85,5.32-1.16,8.08-.94,2.77.23,5.34.91,7.72,2.06,2.38,1.15,4.5,2.7,6.35,4.67Z"/>
      <path class="cls-1" d="m803.36,395.24c-3.04,1.61-5.56,3.68-7.55,6.22-1.98,2.54-3.41,5.5-4.28,8.88s-1.09,7.05-.65,11.03c.44,4.02,1.46,7.59,3.04,10.7,1.59,3.11,3.63,5.68,6.12,7.73,2.49,2.05,5.4,3.51,8.72,4.39s6.94,1.1,10.86.67l36.58-4.03-1.3-11.75-36.52,4.03c-3.07.34-5.66.11-7.79-.67-2.12-.79-3.85-1.86-5.18-3.21-1.34-1.35-2.32-2.86-2.96-4.51-.63-1.66-1.02-3.16-1.17-4.5-.15-1.34-.09-2.89.17-4.65.25-1.75.89-3.44,1.9-5.05,1.01-1.61,2.46-3.03,4.36-4.26,1.9-1.22,4.38-2.01,7.45-2.35l36.52-4.02-1.29-11.75-36.58,4.04c-3.91.43-7.4,1.45-10.45,3.06Z"/>
      <path class="cls-1" d="m847.7,470.98c-2.65-3.13-5.84-5.69-9.57-7.7-3.73-2-7.78-3.18-12.15-3.55-4.38-.36-8.57.14-12.58,1.5-4,1.36-7.57,3.37-10.7,6.02-3.13,2.64-5.69,5.83-7.7,9.56-2,3.73-3.18,7.78-3.54,12.16-.25,2.97-.1,5.88.46,8.72.55,2.84,1.45,5.51,2.68,8.01s2.76,4.82,4.59,6.94c1.83,2.13,3.92,3.97,6.27,5.52l5.38-10.65c-1.27-1.01-2.46-2.16-3.57-3.47-1.11-1.3-2.05-2.72-2.82-4.26-.78-1.53-1.35-3.13-1.72-4.8-.37-1.66-.48-3.37-.34-5.11.23-2.8,1.02-5.37,2.38-7.72,1.35-2.34,3.05-4.33,5.11-5.97,2.05-1.63,4.39-2.88,7-3.74,2.61-.85,5.32-1.16,8.12-.93,2.75.23,5.35.98,7.82,2.26,2.46,1.27,4.57,2.89,6.33,4.84,1.76,1.95,3.11,4.2,4.06,6.73.94,2.54,1.3,5.2,1.07,8.01-.15,1.74-.54,3.4-1.18,4.98-.64,1.59-1.47,3.07-2.48,4.45-1.02,1.39-2.17,2.63-3.45,3.74-1.27,1.11-2.62,2.06-4.04,2.84l3.54,11.39c2.52-1.15,4.86-2.62,7.01-4.42,2.16-1.79,4.05-3.82,5.68-6.09,1.62-2.26,2.94-4.75,3.96-7.46,1.01-2.71,1.65-5.55,1.89-8.52.36-4.38-.13-8.57-1.5-12.58-1.36-4.01-3.36-7.58-6.01-10.7Z"/>
      <polygon class="cls-1" points="785.21 536.6 808.82 543.37 800.41 572.66 776.8 565.88 773.54 577.24 832.92 594.29 836.18 582.93 810.47 575.55 818.87 546.26 844.59 553.64 847.85 542.29 788.47 525.24 785.21 536.6"/>
      <path class="cls-1" d="m807.59,608.77c-2.67-3.32-5.95-6-9.83-8.04-3.93-2.08-8.01-3.27-12.23-3.59-4.22-.32-8.29.13-12.21,1.34-3.91,1.21-7.52,3.15-10.82,5.79-3.31,2.65-5.98,5.91-8.03,9.8-2.07,3.93-3.27,8.01-3.58,12.23-.32,4.22.13,8.29,1.34,12.2,1.21,3.92,3.14,7.53,5.79,10.83,2.64,3.3,5.93,5.99,9.87,8.06,3.88,2.05,7.94,3.24,12.19,3.57,4.25.33,8.33-.11,12.24-1.32,3.92-1.22,7.53-3.14,10.83-5.79,3.3-2.65,5.99-5.94,8.06-9.87,2.05-3.88,3.23-7.94,3.55-12.16s-.13-8.29-1.34-12.2c-1.22-3.92-3.16-7.53-5.83-10.85Zm-6.18,30.09c-1.3,2.48-3.04,4.54-5.2,6.16-2.16,1.62-4.51,2.79-7.05,3.52-2.55.72-5.2.96-7.96.71-2.76-.26-5.37-1.02-7.8-2.31-2.49-1.31-4.61-3.03-6.35-5.15-1.74-2.13-3.05-4.45-3.91-6.97-.87-2.52-1.24-5.13-1.12-7.83.11-2.7.83-5.29,2.14-7.77,1.31-2.48,3.04-4.54,5.2-6.16s4.52-2.79,7.09-3.5c2.57-.71,5.22-.94,7.96-.71,2.74.24,5.35,1.02,7.84,2.33,2.44,1.28,4.54,2.99,6.31,5.13,1.76,2.14,3.07,4.46,3.91,6.97.84,2.51,1.2,5.11,1.09,7.81-.12,2.69-.84,5.29-2.15,7.77Z"/>
      <polygon class="cls-1" points="159.1 159.8 159.81 160.51 160.51 159.81 159.8 159.1 135.33 134.63 134.62 133.92 134.27 134.27 133.92 134.62 159.1 159.8 159.1 159.8"/>
      <path class="cls-1" d="m567.05,721.97h-57.62v58.91h58.91v-58.91h-1.29Zm-56.62,1h.11l8.39,42.22c-2.82.56-5.66,1.08-8.5,1.55v-43.77Zm0,56.91v-12.14c2.91-.49,5.81-1.01,8.7-1.58l2.73,13.72h-11.43Zm56.91,0h-44.46l-2.77-13.92c16.23-3.23,32.01-7.72,47.23-13.37v27.29Zm-47.42-14.88l-8.36-42.03h55.78v28.56c-15.47,5.76-31.3,10.26-47.42,13.47Z"/>
    </g>
  </g>
</svg>