<?xml version="1.0" encoding="UTF-8"?>
<svg id="_图层_2" data-name="图层 2" xmlns="http://www.w3.org/2000/svg" viewBox="0 0 1100.78 891.78">
  <g id="_图层_1-2" data-name="图层 1">
    <g>
      <path d="m550.09,217.17c-.74,20.16-5.5,39.52-10.7,58.85-3.83,14.25-.35,18.11,14.31,15.88,5.51-.84,10.96-2.74,16.18-4.81,33.71-13.37,67.95-24.89,103.97-30.16,29.26-4.27,58.53-6,87.38,2.72,46.45,14.03,68.67,50.53,60.46,98.25-2.76,16.07-8.67,31.18-12.77,46.82-3.52,13.42-1.99,16.07,11.16,21.11,19,7.28,38.18,13.97,56.18,23.73,77.08,41.79,103.9,121.54,67.76,201.45-22.51,49.78-58.4,88.25-100.93,121.33-81.31,63.24-174.52,96.99-275.52,111.66-105.26,15.29-208.93,8.33-310.61-23.07-60.93-18.81-118.88-44.19-167.72-86.39-43.24-37.36-75.63-81.97-85.87-139.75-9.5-53.57,1.93-104.22,23.41-153,39.24-89.09,101.4-160.88,172.61-225.53,50.33-45.69,105.83-83.6,169.05-109.52,25.58-10.49,51.88-18.53,79.46-21.2,48.15-4.67,90.85,17.34,99.84,66.93,1.47,8.12,1.6,16.48,2.34,24.72Zm-138.52,609.05c34.01.42,67.7-2.78,101.04-9.49,81.05-16.31,153.22-49.58,209.86-111.6,36.23-39.68,53.65-85.83,44.6-140.07-7.38-44.21-32.68-77.37-67.14-103.76-58.26-44.62-126.28-63.2-198.02-68.05-67.9-4.59-134.77,3.61-199.01,27.2-62.71,23.03-117.73,57.49-158.18,112.04-44.09,59.45-42.07,135.99,4.8,193.36,21.89,26.79,49.63,46.13,80.43,61.04,57.3,27.74,118.16,39.74,181.63,39.31Z"/>
      <path d="m808.59.02c147.27.22,271.23,109.45,289.81,255.08,5.38,42.21,1.63,83.47-11.22,123.92-6.36,20.01-23.03,32.91-41.43,32.83-18.81-.08-35.54-12.48-41.66-30.96-3.74-11.31-1.48-22.37,1.73-33.32,11.24-38.35,10.08-76.54-.87-114.77-21.79-76.09-90.74-134.4-169.43-143.83-22.71-2.72-45.02-2.01-67.46,1.92-19.33,3.39-36.26-1.27-47.65-18.3-9.88-14.78-10.2-30.39-1.14-45.91,6.25-10.71,15.68-17.13,27.68-19.79,20.3-4.49,40.81-7.16,61.64-6.88Z"/>
      <path d="m809.22,149.32c70.22-.26,131.1,53.36,140.39,122.7,2.82,21.03,1.22,41.29-4.85,61.32-6.24,20.58-26.1,32.05-45.7,26.94-19.22-5.01-31.24-25.32-25.93-46.05,7.91-30.87,1.25-56.6-24.26-76.6-12.64-9.91-26.72-14.94-43.05-13.12-7.09.79-14.3,1.02-21.44.85-18.7-.44-32.23-13.04-34.93-32.08-2.36-16.59,7.96-33.87,24.11-39.16,11.5-3.77,23.52-5.05,35.65-4.8Z"/>
      <path d="m410.79,784.89c-50.76-1.22-90.74-12.25-123.4-41.32-52-46.28-59.56-118.31-20.25-178.61,51.27-78.63,163.17-109.69,247.46-68.79,61.79,29.98,110.19,109.69,55.34,198.3-38.06,61.49-97.1,85.99-159.15,90.41Zm10.66-124.35c.2-27.08-10.81-42.67-31.42-49.77-34.94-12.03-77.7,12.23-84.71,48.62-3.3,17.14,1.65,32.56,15.53,43.49,19.88,15.65,41.8,15.32,63.84,4.84,22-10.46,35.69-27.13,36.76-47.19Zm28.05-40.16c13.68.17,23.86-9.01,23.75-21.41-.1-10.4-6.12-16.2-17.09-16.47-13.1-.32-24.56,9.98-24.82,22.32-.19,9.05,7.25,15.43,18.16,15.57Z"/>
    </g>
  </g>
</svg>