<?xml version="1.0" encoding="UTF-8"?>
<svg id="_图层_2" data-name="图层 2" xmlns="http://www.w3.org/2000/svg" viewBox="0 0 879.79 901.09">
  <g id="_图层_1-2" data-name="图层 1">
    <path d="m0,.15c8.22,0,14.38,0,20.54,0C98.12.15,175.7.25,253.28,0c7.07-.02,11.12,2.14,15.14,8.02,71.35,104.25,142.96,208.33,214.5,312.45,6.95,10.12,7.04,10.25,14.79,1.22,70.06-81.56,140.08-163.16,210.12-244.73,20.62-24.02,41.25-48.04,61.94-72.01,2.09-2.42,4.06-4.95,8.04-4.93,24.02.14,48.04.07,71.84.07,1.7,4-1.25,5.39-2.8,7.2-86.23,100.35-172.51,200.65-258.77,300.97-19.36,22.51-38.53,45.18-58.17,67.44-4.18,4.74-3.85,7.9-.56,12.69,115.3,167.67,230.5,335.42,345.7,503.16,1.66,2.42,3.16,4.95,4.73,7.44-2.49,3.29-5.71,1.74-8.37,1.74-81.54.07-163.09-.07-244.63.15-6.47.02-10.07-2.18-13.6-7.32-76.38-111.58-152.96-223.03-229.29-334.64-4.27-6.25-6.46-5.99-11.15-.51-67.16,78.44-134.54,156.71-201.82,235.05-29.23,34.04-58.38,68.15-87.59,102.21-2.32,2.7-4.39,5.42-8.81,5.38-24.06-.2-48.12-.1-72.2-.1-1.06-4.62,2.49-6.29,4.44-8.56,110.27-128.29,220.56-256.56,331.08-384.64,4.79-5.55,4.79-8.79.7-14.74C252.69,368.35,167.12,243.48,81.45,118.68,56.81,82.78,32.06,46.97,7.36,11.11,5.31,8.14,3.33,5.12,0,.15Zm107.12,59.21c35.67,51.18,69.91,100.41,104.26,149.57,146.41,209.5,292.88,418.97,439.2,628.53,3.17,4.54,6.38,6.49,12.02,6.45,34.33-.26,68.66-.11,102.99-.19,2.01,0,4.64,1.77,6.26-1.78-37.93-54.43-75.91-109.06-114.02-163.6-87.29-124.89-174.66-249.73-261.98-374.6-55.19-78.92-110.38-157.85-165.41-236.87-3.75-5.39-7.71-7.83-14.55-7.7-24.42.45-48.85.19-73.28.19-11.13,0-22.26,0-35.49,0Z"/>
  </g>
</svg>